<?xml version="1.0" standalone="no"?>
<!DOCTYPE svg PUBLIC "-//W3C//DTD SVG 1.1//EN" "http://www.w3.org/Graphics/SVG/1.1/DTD/svg11.dtd" >
<svg xmlns="http://www.w3.org/2000/svg" xmlns:xlink="http://www.w3.org/1999/xlink" version="1.1">
<metadata>
Created by FontForge 20161116 at Mon Jun 13 17:38:30 2011
 By Jimmy Wärting
Designed by Christian Schwartz 2004?2010. Originally designed 1957-1961 by Max Miedinger with art direction by Eduard Hoffmann. Released as Neue Haas Grotesk by the Haas'sche Schriftgiesserei, and then revised and released as Helvetica by Linotype AG. Revival originally commissioned in 2004 by Mark Porter at The Guardian. Completed in 2010 for Richard Turley at Bloomberg Businessweek. Thinnest weight designed by Berton Hasebe.
</metadata>
<defs>
<font id="NeueHaasGroteskDispMedium" horiz-adv-x="500" >
  <font-face 
    font-family="NeueHaasGroteskDisp Medium"
    font-weight="500"
    font-stretch="normal"
    units-per-em="1000"
    panose-1="2 0 6 3 0 0 0 2 0 3"
    ascent="800"
    descent="-200"
    x-height="513"
    cap-height="715"
    bbox="-171 -263 1202 930"
    underline-thickness="20"
    underline-position="-133"
    unicode-range="U+0020-FB02"
  />
<missing-glyph horiz-adv-x="168" 
 />
    <glyph glyph-name=".notdef" horiz-adv-x="168" 
 />
    <glyph glyph-name="space" unicode=" " horiz-adv-x="168" 
 />
    <glyph glyph-name="exclam" unicode="!" horiz-adv-x="254" 
d="M94 209l-38 348v158h142v-158l-38 -348h-66zM54 0v145h146v-145h-146z" />
    <glyph glyph-name="quotedbl" unicode="&#x22;" horiz-adv-x="382" 
d="M222 464v251h119v-251h-119zM41 464v251h119v-251h-119z" />
    <glyph glyph-name="numbersign" unicode="#" horiz-adv-x="593" 
d="M61 407l18 106h96l27 173h93l-27 -173h108l27 173h93l-27 -173h97l-17 -106h-97l-18 -118h96l-17 -106h-96l-28 -183h-93l28 183h-108l-28 -183h-93l28 183h-97l18 106h96l18 118h-97zM251 407l-18 -118h108l18 118h-108z" />
    <glyph glyph-name="dollar" unicode="$" horiz-adv-x="614" 
d="M281 -97v86c-164 11 -255 89 -259 225h136c9 -71 46 -106 123 -114v190c-3 0 -4 0 -5 1c-123 27 -235 62 -235 204c0 130 100 197 240 205v59h60v-60c135 -12 219 -85 228 -212h-133c-7 56 -44 88 -95 99v-173c1 -1 3 -1 6 -1c129 -27 239 -66 239 -208
c0 -134 -104 -208 -245 -216v-85h-60zM446 187c0 51 -38 71 -105 88v-175c58 5 105 33 105 87zM180 510c0 -47 32 -65 101 -84v163c-64 -7 -101 -35 -101 -79z" />
    <glyph glyph-name="percent" unicode="%" horiz-adv-x="837" 
d="M195 301c-102 0 -176 78 -176 199c0 123 76 200 176 200c103 0 175 -77 175 -200c0 -121 -72 -199 -175 -199zM643 -16c-102 0 -176 78 -176 199c0 123 76 200 176 200c103 0 175 -77 175 -200c0 -121 -72 -199 -175 -199zM201 0l351 686h85l-351 -686h-85zM643 61
c47 0 69 50 69 122s-22 124 -69 124s-69 -51 -69 -124c0 -72 22 -122 69 -122zM195 378c47 0 69 50 69 122s-22 124 -69 124s-69 -51 -69 -124c0 -72 22 -122 69 -122z" />
    <glyph glyph-name="ampersand" unicode="&#x26;" horiz-adv-x="656" 
d="M257 -15c-157 0 -238 87 -238 199c0 101 65 166 158 213c-41 51 -60 89 -60 148c0 93 74 165 185 165c108 0 187 -66 187 -164c0 -88 -51 -132 -128 -172l95 -123c15 37 24 76 28 116h121c-7 -80 -29 -157 -68 -221l113 -146h-166l-37 47c-53 -39 -118 -62 -190 -62z
M262 97c43 0 81 14 114 42l-131 171c-61 -37 -82 -77 -82 -122c0 -55 43 -91 99 -91zM248 543c0 -32 21 -63 52 -92c47 28 60 58 60 93s-25 57 -56 57c-32 0 -56 -23 -56 -58z" />
    <glyph glyph-name="quotesingle" unicode="'" horiz-adv-x="201" 
d="M41 464v251h119v-251h-119z" />
    <glyph glyph-name="parenleft" unicode="(" horiz-adv-x="346" 
d="M333 -131h-114c-80 112 -152 255 -152 439c0 188 72 343 151 446h116c-72 -115 -125 -254 -125 -446c0 -181 55 -320 124 -439z" />
    <glyph glyph-name="parenright" unicode=")" horiz-adv-x="346" 
d="M127 -131h-114c69 119 124 258 124 439c0 192 -53 331 -125 446h116c79 -103 151 -258 151 -446c0 -184 -72 -327 -152 -439z" />
    <glyph glyph-name="asterisk" unicode="*" horiz-adv-x="402" 
d="M134 391l-62 45l68 92l-108 35l27 69l104 -35v118h77v-118l103 35l27 -69l-106 -35l67 -92l-61 -45l-68 97z" />
    <glyph glyph-name="plus" unicode="+" horiz-adv-x="569" 
d="M35 278v100h197v203h104v-203h198v-100h-198v-203h-104v203h-197z" />
    <glyph glyph-name="comma" unicode="," horiz-adv-x="218" 
d="M37 -166v49c39 20 72 54 72 117h-73v145h146v-137c0 -101 -69 -161 -145 -174z" />
    <glyph glyph-name="hyphen" unicode="-" horiz-adv-x="339" 
d="M34 189v117h271v-117h-271z" />
    <glyph glyph-name="period" unicode="." horiz-adv-x="218" 
d="M36 0v145h146v-145h-146z" />
    <glyph glyph-name="slash" unicode="/" horiz-adv-x="414" 
d="M13 0l280 715h108l-280 -715h-108z" />
    <glyph glyph-name="zero" unicode="0" horiz-adv-x="632" 
d="M316 -16c-175 0 -286 140 -286 358c0 220 114 358 287 358c177 0 285 -138 285 -358c0 -218 -107 -358 -286 -358zM317 100c101 0 143 94 143 242c0 145 -42 242 -143 242s-145 -96 -145 -242c0 -145 44 -242 145 -242z" />
    <glyph glyph-name="one" unicode="1" horiz-adv-x="392" 
d="M182 0v478h-155v90c83 3 160 34 173 122h119v-690h-137z" />
    <glyph glyph-name="two" unicode="2" horiz-adv-x="547" 
d="M518 0h-492c5 131 87 210 165 272c86 68 180 116 180 204c0 64 -34 107 -95 107c-69 0 -109 -50 -112 -139h-128c0 156 80 255 243 255c149 0 233 -101 233 -219c0 -130 -88 -189 -172 -246c-54 -35 -113 -78 -138 -122h316v-112z" />
    <glyph glyph-name="three" unicode="3" horiz-adv-x="567" 
d="M285 -15c-177 0 -267 98 -270 248h130c5 -83 41 -139 135 -139c76 0 121 40 121 111c0 67 -42 106 -126 106h-42v103h39c65 0 111 32 111 91c0 55 -37 90 -97 90c-79 0 -116 -50 -119 -122h-130c5 135 89 226 249 226c143 0 235 -71 235 -185c0 -77 -49 -121 -117 -144
v-2c88 -21 139 -76 139 -172c0 -142 -117 -211 -258 -211z" />
    <glyph glyph-name="four" unicode="4" horiz-adv-x="595" 
d="M340 0v149h-316v147l311 397h138v-435h104v-109h-104v-149h-133zM134 261v-3h206v266h-2z" />
    <glyph glyph-name="five" unicode="5" horiz-adv-x="578" 
d="M289 -15c-152 0 -263 80 -276 213h134c12 -68 67 -99 139 -99c79 0 127 56 127 129c0 81 -55 126 -127 126c-52 0 -92 -20 -112 -43h-131l66 374h404v-113h-309l-26 -148h2c31 27 78 43 142 43c121 0 232 -91 232 -239c0 -143 -116 -243 -265 -243z" />
    <glyph glyph-name="six" unicode="6" horiz-adv-x="594" 
d="M315 -15c-196 0 -281 160 -284 347c-1 121 23 219 84 288c44 51 104 79 197 79c136 0 220 -76 236 -177h-131c-11 43 -40 73 -100 73c-100 0 -148 -75 -148 -196h2c36 43 81 71 161 71c127 0 238 -99 238 -245c0 -141 -111 -240 -255 -240zM310 92c74 0 130 56 130 131
c0 77 -55 137 -129 137c-84 0 -133 -56 -133 -136c0 -77 55 -132 132 -132z" />
    <glyph glyph-name="seven" unicode="7" horiz-adv-x="530" 
d="M260 0h-148c8 251 144 460 247 566v2h-340v117h488v-112c-123 -126 -236 -323 -247 -573z" />
    <glyph glyph-name="eight" unicode="8" horiz-adv-x="597" 
d="M302 -15c-155 0 -279 75 -279 213c0 85 49 151 125 180v3c-61 28 -96 69 -96 136c0 116 101 182 249 182s244 -65 244 -180c0 -64 -35 -109 -95 -137v-3c76 -27 124 -91 124 -175c0 -141 -116 -219 -272 -219zM299 95c80 0 135 43 135 108c0 71 -49 116 -133 116
s-137 -45 -137 -116c0 -68 51 -108 135 -108zM299 414c72 0 113 37 113 92s-41 90 -113 90s-114 -35 -114 -90s42 -92 114 -92z" />
    <glyph glyph-name="nine" unicode="9" horiz-adv-x="597" 
d="M293 -15c-144 0 -224 76 -240 179h132c11 -41 43 -75 104 -75c43 0 76 14 99 43c27 35 42 88 43 161h-2c-36 -43 -83 -75 -159 -75c-140 0 -245 94 -245 241c0 141 110 240 258 240c183 0 284 -114 284 -347c0 -219 -73 -367 -274 -367zM289 328c78 0 138 52 138 131
c0 77 -60 133 -137 133c-79 0 -135 -56 -135 -131c0 -79 50 -133 134 -133z" />
    <glyph glyph-name="colon" unicode=":" horiz-adv-x="224" 
d="M39 301v145h146v-145h-146zM39 0v145h146v-145h-146z" />
    <glyph glyph-name="semicolon" unicode=";" horiz-adv-x="224" 
d="M40 -166v49c39 20 72 54 72 117h-73v145h146v-137c0 -101 -69 -161 -145 -174zM39 301v145h146v-145h-146z" />
    <glyph glyph-name="less" unicode="&#x3c;" 
d="M455 79l-410 173v116l410 173v-114l-217 -85c-17 -7 -40 -14 -60 -21c-12 -4 -24 -8 -35 -12v-2c11 -4 23 -8 35 -11c20 -7 43 -12 60 -19l217 -82v-116z" />
    <glyph glyph-name="equal" unicode="=" horiz-adv-x="562" 
d="M56 358v98h464v-98h-464zM56 165v98h464v-98h-464z" />
    <glyph glyph-name="greater" unicode="&#x3e;" 
d="M45 79v114l217 85c16 7 40 14 60 21c12 4 24 8 35 12v2c-11 3 -23 7 -35 10c-20 7 -44 13 -60 20l-217 82v116l410 -173v-116z" />
    <glyph glyph-name="question" unicode="?" horiz-adv-x="538" 
d="M315 209h-122c0 118 43 145 104 190c43 32 81 55 81 116s-45 98 -106 98c-75 0 -124 -46 -125 -125h-129c3 132 90 240 253 240c153 0 243 -91 243 -209c0 -99 -52 -140 -95 -172c-76 -57 -104 -67 -104 -138zM181 0v145h146v-145h-146z" />
    <glyph glyph-name="at" unicode="@" horiz-adv-x="901" 
d="M395 78c-104 0 -167 76 -167 196c0 144 79 245 199 245c59 0 96 -27 115 -74h2l7 63h125l-34 -274c-7 -51 3 -80 43 -80c46 0 97 54 97 187c0 199 -131 296 -317 296s-340 -130 -340 -353c0 -183 110 -318 315 -318c67 0 126 14 181 37l28 -66c-63 -31 -132 -46 -207 -46
c-237 0 -406 156 -406 393c0 276 209 430 430 430c212 0 399 -129 399 -371c0 -163 -71 -264 -190 -264c-72 0 -121 26 -141 79h-3c-31 -51 -76 -80 -136 -80zM430 175c64 0 100 62 100 147c0 59 -25 101 -76 101c-61 0 -96 -65 -96 -146c0 -57 21 -102 72 -102z" />
    <glyph glyph-name="A" unicode="A" horiz-adv-x="659" 
d="M3 0l249 715h150l252 -715h-151l-48 152h-258l-47 -152h-147zM295 469l-64 -206h189l-64 206c-7 19 -12 46 -19 69c-3 13 -7 27 -10 41h-2c-4 -14 -8 -28 -11 -41c-7 -23 -12 -50 -19 -69z" />
    <glyph glyph-name="B" unicode="B" horiz-adv-x="656" 
d="M55 0v715h320c77 0 136 -19 173 -52c38 -34 57 -79 57 -134c0 -73 -44 -120 -112 -143v-3c80 -23 133 -89 133 -177c0 -68 -20 -113 -63 -149c-41 -36 -104 -57 -180 -57h-328zM200 320v-200h167c71 0 112 38 112 97c0 68 -49 103 -116 103h-163zM200 427h157
c64 0 106 30 106 86c0 53 -39 84 -103 84h-160v-170z" />
    <glyph glyph-name="C" unicode="C" horiz-adv-x="684" 
d="M368 -15c-201 0 -344 155 -344 370c0 212 132 374 343 374c176 0 279 -105 295 -241h-144c-13 72 -67 119 -151 119c-132 0 -195 -111 -195 -252c0 -147 75 -251 196 -251c85 0 145 50 154 126h142c-4 -64 -31 -124 -79 -169c-49 -47 -117 -76 -217 -76z" />
    <glyph glyph-name="D" unicode="D" horiz-adv-x="672" 
d="M55 0v715h279c192 0 314 -154 314 -365c0 -117 -38 -217 -114 -281c-53 -44 -121 -69 -212 -69h-267zM200 125h112c136 0 189 82 189 225c0 142 -62 241 -185 241h-116v-466z" />
    <glyph glyph-name="E" unicode="E" horiz-adv-x="619" 
d="M55 0v715h526v-122h-381v-160h334v-119h-334v-193h384v-121h-529z" />
    <glyph glyph-name="F" unicode="F" horiz-adv-x="594" 
d="M55 0v715h512v-123h-367v-172h311v-124h-311v-296h-145z" />
    <glyph glyph-name="G" unicode="G" horiz-adv-x="734" 
d="M579 0l-5 96h-2c-49 -83 -116 -111 -201 -111c-108 0 -191 39 -251 104c-60 67 -93 158 -93 266c0 120 41 223 117 292c59 53 134 82 230 82c181 0 282 -99 306 -239h-142c-16 69 -69 119 -161 119c-135 0 -202 -112 -202 -254c0 -147 77 -253 200 -253
c112 0 184 82 184 162v4h-172v112h301v-380h-109z" />
    <glyph glyph-name="H" unicode="H" horiz-adv-x="681" 
d="M55 0v715h145v-280h281v280h145v-715h-145v315h-281v-315h-145z" />
    <glyph glyph-name="I" unicode="I" horiz-adv-x="257" 
d="M56 0v715h145v-715h-145z" />
    <glyph glyph-name="J" unicode="J" horiz-adv-x="516" 
d="M251 -13c-149 0 -234 67 -234 208v71h130v-62c0 -72 32 -100 92 -100s86 34 86 98v513h145v-514c0 -122 -71 -214 -219 -214z" />
    <glyph glyph-name="K" unicode="K" horiz-adv-x="674" 
d="M55 0v715h145v-285l275 285h180l-280 -286l298 -429h-170l-230 334l-73 -74v-260h-145z" />
    <glyph glyph-name="L" unicode="L" horiz-adv-x="559" 
d="M55 0v715h145v-594h336v-121h-481z" />
    <glyph glyph-name="M" unicode="M" horiz-adv-x="814" 
d="M55 0v715h204l101 -359c12 -45 24 -93 32 -130c5 -22 9 -43 13 -63h2c4 20 8 41 13 63c8 37 18 85 31 130l101 359h207v-715h-135v410c0 29 0 65 3 96c1 17 2 35 3 52h-2c-3 -17 -7 -33 -10 -49c-7 -28 -14 -60 -21 -87l-123 -422h-139l-120 422c-8 27 -14 59 -21 87
c-3 16 -7 32 -10 49h-2c1 -17 2 -35 3 -52c1 -31 3 -67 3 -96v-410h-133z" />
    <glyph glyph-name="N" unicode="N" horiz-adv-x="686" 
d="M55 0v715h147l238 -399c11 -20 23 -45 34 -65c6 -12 11 -24 16 -35h2c-1 14 -1 28 -2 43c-1 25 -2 56 -2 81v375h143v-715h-140l-244 395c-12 19 -23 44 -34 64c-6 12 -12 24 -17 35h-2c1 -15 1 -29 2 -44c1 -25 2 -56 2 -81v-369h-143z" />
    <glyph glyph-name="O" unicode="O" horiz-adv-x="737" 
d="M369 -16c-212 0 -345 158 -345 372s133 373 345 373c211 0 344 -159 344 -373s-133 -372 -344 -372zM370 103c131 0 195 111 195 253c0 143 -64 254 -195 254s-198 -111 -198 -254c0 -142 67 -253 198 -253z" />
    <glyph glyph-name="P" unicode="P" horiz-adv-x="637" 
d="M55 0v715h314c84 0 144 -24 187 -67c40 -41 64 -96 64 -163c0 -135 -90 -226 -239 -226h-176v-259h-150zM205 589v-212h150c76 0 116 42 116 107c0 68 -42 105 -114 105h-152z" />
    <glyph glyph-name="Q" unicode="Q" horiz-adv-x="733" 
d="M633 -42l-83 75c-51 -31 -112 -49 -183 -49c-211 0 -343 158 -343 372s132 373 343 373s342 -159 342 -373c0 -99 -27 -184 -78 -249l76 -68zM368 103c33 0 61 6 84 19l-63 58l74 80l65 -60c23 43 33 96 33 156c0 143 -61 254 -193 254s-196 -111 -196 -254
c0 -142 64 -253 196 -253z" />
    <glyph glyph-name="R" unicode="R" horiz-adv-x="651" 
d="M55 0v715h328c139 0 230 -80 230 -199c0 -84 -39 -148 -131 -173v-3c65 -19 100 -57 109 -144c11 -101 5 -178 31 -189v-7h-139c-18 8 -21 89 -26 165c-7 79 -49 122 -140 122h-117v-287h-145zM200 598v-199h154c80 0 118 41 118 98c0 59 -37 101 -114 101h-158z" />
    <glyph glyph-name="S" unicode="S" horiz-adv-x="642" 
d="M332 -16c-195 0 -304 85 -309 237h142c11 -87 58 -120 161 -120c74 0 139 25 139 92c0 69 -69 85 -177 109c-128 29 -245 63 -245 212c0 141 115 214 274 214c161 0 265 -78 276 -223h-139c-8 72 -63 108 -138 108c-79 0 -129 -33 -129 -84c0 -58 50 -74 156 -98
c147 -32 267 -67 267 -221c0 -145 -118 -226 -278 -226z" />
    <glyph glyph-name="T" unicode="T" horiz-adv-x="611" 
d="M18 593v122h575v-122h-215v-593h-145v593h-215z" />
    <glyph glyph-name="U" unicode="U" horiz-adv-x="657" 
d="M331 -12c-187 0 -282 86 -282 242v485h145v-485c0 -75 37 -126 134 -126c92 0 135 53 135 128v483h145v-485c0 -153 -93 -242 -277 -242z" />
    <glyph glyph-name="V" unicode="V" horiz-adv-x="618" 
d="M243 0l-241 715h152l126 -414c7 -24 14 -52 21 -75c3 -13 7 -26 10 -39h2c3 13 7 27 10 40c7 23 14 51 21 74l125 414h147l-241 -715h-132z" />
    <glyph glyph-name="W" unicode="W" horiz-adv-x="916" 
d="M213 0l-208 715h148l93 -355c7 -31 14 -70 21 -101c3 -18 7 -36 10 -55h2c4 17 8 35 11 52c7 31 14 68 22 100l78 359h140l78 -358c7 -32 15 -69 22 -100c3 -17 7 -35 11 -53h2c4 18 8 36 12 55c7 31 16 71 23 102l90 354h143l-204 -715h-135l-87 383
c-7 27 -12 58 -17 83c-3 15 -5 29 -8 44h-2c-2 -15 -4 -29 -7 -44c-4 -25 -9 -56 -16 -83l-88 -383h-134z" />
    <glyph glyph-name="X" unicode="X" horiz-adv-x="647" 
d="M8 0l231 374l-214 341h163l132 -226h2l132 226h158l-210 -340l237 -375h-169l-146 261h-2l-148 -261h-166z" />
    <glyph glyph-name="Y" unicode="Y" horiz-adv-x="629" 
d="M242 0v276l-238 439h158l108 -212c11 -23 23 -47 32 -67c5 -12 10 -24 15 -35h2c5 11 11 23 16 35c9 20 21 44 32 67l106 212h152l-238 -439v-276h-145z" />
    <glyph glyph-name="Z" unicode="Z" horiz-adv-x="626" 
d="M27 0v109l390 482v3h-365v121h537v-121l-377 -468v-3h384v-123h-569z" />
    <glyph glyph-name="bracketleft" unicode="[" horiz-adv-x="382" 
d="M64 -131v885h286v-106h-155v-673h155v-106h-286z" />
    <glyph glyph-name="backslash" unicode="\" horiz-adv-x="414" 
d="M293 0l-280 715h108l280 -715h-108z" />
    <glyph glyph-name="bracketright" unicode="]" horiz-adv-x="382" 
d="M32 -131v106h155v673h-155v106h286v-885h-286z" />
    <glyph glyph-name="asciicircum" unicode="^" horiz-adv-x="447" 
d="M8 428l158 287h115l158 -287h-124l-90 169h-2l-93 -169h-122z" />
    <glyph glyph-name="underscore" unicode="_" horiz-adv-x="423" 
d="M-3 -168v85h428v-85h-428z" />
    <glyph glyph-name="grave" unicode="`" 
d="M210 577l-108 141h159l55 -141h-106z" />
    <glyph glyph-name="a" unicode="a" horiz-adv-x="522" 
d="M498 0h-131c-8 11 -13 34 -16 57h-2c-26 -39 -63 -69 -151 -69c-105 0 -179 54 -179 157c0 113 91 149 206 165c85 12 124 19 124 58c0 37 -29 61 -86 61c-64 0 -95 -23 -99 -72h-121c3 90 73 169 221 169c153 0 216 -69 216 -189v-261c0 -39 6 -62 18 -71v-5zM231 83
c77 0 121 48 121 98v77c-24 -15 -60 -22 -95 -30c-72 -16 -106 -32 -106 -80s32 -65 80 -65z" />
    <glyph glyph-name="b" unicode="b" horiz-adv-x="566" 
d="M330 -15c-72 0 -122 31 -153 79h-2v-64h-131v715h136v-264h3c28 43 71 76 143 76c129 0 221 -111 221 -271c0 -166 -89 -271 -217 -271zM300 99c71 0 109 57 109 157c0 96 -38 161 -114 161c-85 0 -118 -69 -118 -164s47 -154 123 -154z" />
    <glyph glyph-name="c" unicode="c" horiz-adv-x="528" 
d="M282 -15c-162 0 -263 119 -263 271s100 271 256 271c133 0 214 -77 233 -188h-133c-9 45 -43 79 -94 79c-83 0 -124 -62 -124 -162c0 -97 38 -162 122 -162c56 0 94 28 103 87h131c-8 -108 -95 -196 -231 -196z" />
    <glyph glyph-name="d" unicode="d" horiz-adv-x="566" 
d="M236 -15c-128 0 -217 105 -217 271c0 160 91 271 219 271c72 0 117 -33 145 -76h3v264h136v-715h-131v67h-2c-31 -49 -81 -82 -153 -82zM266 99c81 0 123 59 123 154c0 98 -32 164 -119 164c-75 0 -113 -66 -113 -161c0 -100 38 -157 109 -157z" />
    <glyph glyph-name="e" unicode="e" horiz-adv-x="544" 
d="M285 -15c-171 0 -266 119 -266 272c0 152 104 270 253 270c164 0 253 -126 253 -309h-372c11 -80 54 -128 131 -128c53 0 84 24 99 63h134c-19 -91 -100 -168 -232 -168zM274 422c-72 0 -107 -42 -119 -110h228c-4 65 -46 110 -109 110z" />
    <glyph glyph-name="f" unicode="f" horiz-adv-x="330" 
d="M14 419v94h70v46c0 125 96 168 228 155v-105c-64 3 -92 -5 -92 -58v-38h92v-94h-92v-419h-136v419h-70z" />
    <glyph glyph-name="g" unicode="g" horiz-adv-x="560" 
d="M270 -175c-141 0 -225 60 -240 160h135c11 -32 39 -57 103 -57c76 0 114 36 114 107v56h-3c-31 -35 -69 -60 -134 -60c-114 0 -226 90 -226 245c0 153 92 251 222 251c64 0 111 -25 142 -68h2v54h131v-474c0 -72 -22 -121 -61 -156c-43 -40 -109 -58 -185 -58zM268 140
c85 0 121 63 121 139s-39 139 -122 139c-69 0 -115 -53 -115 -140c0 -88 45 -138 116 -138z" />
    <glyph glyph-name="h" unicode="h" horiz-adv-x="549" 
d="M180 715v-269h3c37 55 78 81 149 81c106 0 177 -81 177 -192v-335h-136v315c0 56 -32 94 -89 94c-60 0 -104 -47 -104 -118v-291h-136v715h136z" />
    <glyph glyph-name="i" unicode="i" horiz-adv-x="224" 
d="M44 0v513h136v-513h-136zM44 593v122h136v-122h-136z" />
    <glyph glyph-name="j" unicode="j" horiz-adv-x="224" 
d="M36 -169c-25 0 -56 2 -77 6v97c55 0 85 7 85 53v526h136v-533c0 -60 -11 -89 -34 -112c-27 -27 -66 -37 -110 -37zM44 593v122h136v-122h-136z" />
    <glyph glyph-name="k" unicode="k" horiz-adv-x="546" 
d="M382 0l-144 234l-59 -61v-173h-135v715h135v-396l182 194h163l-189 -195l212 -318h-165z" />
    <glyph glyph-name="l" unicode="l" horiz-adv-x="228" 
d="M46 0v715h136v-715h-136z" />
    <glyph glyph-name="m" unicode="m" horiz-adv-x="834" 
d="M44 0v513h131v-69h3c28 47 77 83 149 83c65 0 117 -35 142 -90h2c35 56 89 90 154 90c108 0 169 -69 169 -182v-345h-136v322c0 59 -28 88 -79 88c-57 0 -92 -44 -92 -112v-298h-136v322c0 59 -28 88 -79 88c-56 0 -92 -44 -92 -112v-298h-136z" />
    <glyph glyph-name="n" unicode="n" horiz-adv-x="549" 
d="M177 513v-70h3c35 56 81 84 152 84c106 0 177 -81 177 -192v-335h-136v315c0 56 -32 94 -89 94c-60 0 -104 -47 -104 -118v-291h-136v513h133z" />
    <glyph glyph-name="o" unicode="o" horiz-adv-x="574" 
d="M287 -15c-159 0 -268 119 -268 271s109 271 268 271s268 -119 268 -271s-109 -271 -268 -271zM287 89c84 0 130 67 130 167s-46 168 -130 168s-130 -68 -130 -168s46 -167 130 -167z" />
    <glyph glyph-name="p" unicode="p" horiz-adv-x="571" 
d="M44 -168v681h131v-64h3c33 45 80 78 151 78c136 0 223 -111 223 -271c0 -166 -90 -271 -222 -271c-72 0 -119 29 -148 73h-2v-226h-136zM301 98c69 0 113 57 113 154s-34 165 -118 165c-85 0 -119 -73 -119 -165c0 -93 43 -154 124 -154z" />
    <glyph glyph-name="q" unicode="q" horiz-adv-x="571" 
d="M391 -168v226h-2c-25 -41 -71 -73 -140 -73c-125 0 -222 105 -222 271c0 160 86 271 222 271c71 0 113 -29 144 -78h3v64h131v-681h-136zM278 101c72 0 116 58 116 151s-33 167 -115 167c-84 0 -114 -70 -114 -167s41 -151 113 -151z" />
    <glyph glyph-name="r" unicode="r" horiz-adv-x="351" 
d="M175 513v-82h3c31 59 66 88 126 88c14 0 25 -1 32 -4v-119h-3c-89 9 -153 -38 -153 -146v-250h-136v513h131z" />
    <glyph glyph-name="s" unicode="s" horiz-adv-x="485" 
d="M252 -15c-149 0 -232 72 -240 181h126c9 -60 51 -85 112 -85c60 0 94 23 94 59c0 48 -66 55 -135 68c-92 18 -182 42 -182 155c0 111 92 164 209 164c136 0 209 -66 220 -170h-123c-7 56 -40 75 -99 75c-53 0 -88 -20 -88 -57c0 -45 69 -47 141 -63
c86 -19 181 -41 181 -162c0 -103 -89 -165 -216 -165z" />
    <glyph glyph-name="t" unicode="t" horiz-adv-x="332" 
d="M14 423v90h71v160h133v-160h88v-90h-88v-272c0 -39 20 -51 51 -51h26c5 0 9 0 14 1v-100c-7 -1 -14 -1 -22 -1c-15 -1 -36 -1 -63 -1c-66 0 -139 26 -139 123v301h-71z" />
    <glyph glyph-name="u" unicode="u" horiz-adv-x="543" 
d="M499 0h-131v60h-3c-35 -47 -75 -74 -147 -74c-115 0 -178 72 -178 185v342h135v-319c0 -60 26 -93 85 -93c64 0 103 48 103 116v296h136v-513z" />
    <glyph glyph-name="v" unicode="v" horiz-adv-x="491" 
d="M180 0l-178 513h138l82 -266c7 -25 13 -44 17 -59c3 -8 5 -16 6 -23h2c1 7 2 15 5 23c4 15 9 34 17 59l84 266h136l-179 -513h-130z" />
    <glyph glyph-name="w" unicode="w" horiz-adv-x="745" 
d="M154 0l-150 513h135l62 -238c5 -21 12 -45 16 -64c3 -11 5 -22 7 -32h2c2 11 4 22 7 33c4 19 8 43 15 64l64 237h116l67 -237c5 -23 11 -46 16 -65c3 -11 5 -22 8 -32h2c2 10 4 21 7 32c4 20 9 41 16 64l65 238h132l-153 -513h-124l-68 252c-7 20 -12 43 -16 60
c-3 10 -5 20 -7 29h-2c-3 -9 -5 -19 -8 -29c-5 -17 -11 -40 -16 -60l-70 -252h-123z" />
    <glyph glyph-name="x" unicode="x" horiz-adv-x="535" 
d="M8 0l187 272l-167 241h155l91 -147h2l86 147h141l-159 -240l183 -273h-162l-95 170h-2l-111 -170h-149z" />
    <glyph glyph-name="y" unicode="y" horiz-adv-x="497" 
d="M55 -168v107h48c55 0 76 27 76 70c0 28 -10 62 -39 139l-138 365h143l76 -231c8 -24 15 -51 22 -74c3 -13 7 -25 11 -38h2c3 13 6 25 9 38c5 23 13 50 21 74l72 231h137l-179 -526c-40 -115 -77 -155 -181 -155h-80z" />
    <glyph glyph-name="z" unicode="z" horiz-adv-x="485" 
d="M27 0v104l264 299v3h-234v107h392v-109l-258 -292v-3h271v-109h-435z" />
    <glyph glyph-name="braceleft" unicode="{" horiz-adv-x="382" 
d="M350 -131h-32c-138 0 -210 41 -210 185v132c0 51 -20 74 -83 77v100c63 3 83 26 83 77v130c0 144 72 184 210 184h32v-106h-27c-56 0 -84 -13 -84 -78v-152c0 -61 -19 -88 -60 -103v-3c41 -16 60 -42 60 -103v-155c0 -64 28 -79 84 -79h27v-106z" />
    <glyph glyph-name="bar" unicode="|" horiz-adv-x="210" 
d="M64 -131v885h83v-885h-83z" />
    <glyph glyph-name="braceright" unicode="}" horiz-adv-x="382" 
d="M32 -131v106h27c56 0 84 13 84 78v155c0 61 19 88 60 103v3c-41 16 -60 42 -60 103v152c0 64 -28 79 -84 79h-27v106h32c138 0 210 -41 210 -185v-129c0 -51 20 -74 83 -77v-100c-63 -3 -83 -26 -83 -77v-133c0 -144 -72 -184 -210 -184h-32z" />
    <glyph glyph-name="asciitilde" unicode="~" horiz-adv-x="426" 
d="M122 250h-90c1 109 50 156 114 156c57 0 103 -37 137 -37c24 0 32 9 35 36h90c-1 -96 -36 -152 -109 -152c-56 0 -111 36 -142 36c-21 0 -32 -10 -35 -39z" />
    <glyph glyph-name="Euro" unicode="&#x20ac;" horiz-adv-x="630" 
d="M18 369v59h53c27 163 134 272 286 272c154 0 242 -97 255 -232h-136c-11 73 -50 118 -119 118c-79 0 -126 -61 -143 -158h177v-59h-183c-1 -9 -1 -19 -1 -28c0 -12 0 -24 1 -35h183v-59h-176c19 -96 68 -148 147 -148c77 0 115 58 124 139h132
c-8 -148 -99 -254 -258 -254c-149 0 -259 101 -288 263h-54v59h47c-1 11 -1 23 -1 35c0 9 0 19 1 28h-47z" />
    <glyph glyph-name="quotesinglbase" unicode="&#x201a;" horiz-adv-x="201" 
d="M32 -138v47c31 10 68 41 68 91h-66v130h135v-118c0 -91 -70 -139 -137 -150z" />
    <glyph glyph-name="florin" unicode="&#x192;" horiz-adv-x="398" 
d="M30 323v90h91l21 143c19 133 110 154 233 138v-99c-59 5 -88 0 -96 -53l-19 -129h100v-90h-113l-49 -341c-19 -127 -94 -150 -213 -132v93c44 -3 68 0 76 53l47 327h-78z" />
    <glyph glyph-name="quotedblbase" unicode="&#x201e;" horiz-adv-x="399" 
d="M230 -138v47c31 10 68 41 68 91h-66v130h135v-118c0 -91 -70 -139 -137 -150zM32 -138v47c31 10 68 41 68 91h-66v130h135v-118c0 -91 -70 -139 -137 -150z" />
    <glyph glyph-name="ellipsis" unicode="&#x2026;" horiz-adv-x="722" 
d="M540 0v145h146v-145h-146zM36 0v145h146v-145h-146zM288 0v145h146v-145h-146z" />
    <glyph glyph-name="dagger" unicode="&#x2020;" horiz-adv-x="565" 
d="M34 412v107h183v196h131v-196h183v-107h-183v-529h-131v529h-183z" />
    <glyph glyph-name="daggerdbl" unicode="&#x2021;" horiz-adv-x="565" 
d="M34 412v107h183v196h131v-196h183v-107h-183v-226h183v-107h-183v-196h-131v196h-183v107h183v226h-183z" />
    <glyph glyph-name="circumflex" unicode="&#x2c6;" 
d="M82 581l94 126h146l96 -126h-118l-48 69h-2l-49 -69h-119z" />
    <glyph glyph-name="perthousand" unicode="&#x2030;" horiz-adv-x="1221" 
d="M195 301c-102 0 -176 78 -176 199c0 123 76 200 176 200c103 0 175 -77 175 -200c0 -121 -72 -199 -175 -199zM634 -16c-102 0 -176 78 -176 199c0 123 76 200 176 200c103 0 175 -77 175 -200c0 -121 -72 -199 -175 -199zM1027 -16c-102 0 -176 78 -176 199
c0 123 76 200 176 200c103 0 175 -77 175 -200c0 -121 -72 -199 -175 -199zM196 0l351 686h85l-351 -686h-85zM195 378c47 0 69 50 69 122s-22 124 -69 124s-69 -51 -69 -124c0 -72 22 -122 69 -122zM634 61c47 0 69 50 69 122s-22 124 -69 124s-69 -51 -69 -124
c0 -72 22 -122 69 -122zM1027 61c47 0 69 50 69 122s-22 124 -69 124s-69 -51 -69 -124c0 -72 22 -122 69 -122z" />
    <glyph glyph-name="Scaron" unicode="&#x160;" horiz-adv-x="642" 
d="M332 -16c-195 0 -304 85 -309 237h142c11 -87 58 -120 161 -120c74 0 139 25 139 92c0 69 -69 85 -177 109c-128 29 -245 63 -245 212c0 141 115 214 274 214c161 0 265 -78 276 -223h-139c-8 72 -63 108 -138 108c-79 0 -129 -33 -129 -84c0 -58 50 -74 156 -98
c147 -32 267 -67 267 -221c0 -145 -118 -226 -278 -226zM488 867l-94 -114h-146l-96 114h118l48 -57h2l49 57h119z" />
    <glyph glyph-name="guilsinglleft" unicode="&#x2039;" horiz-adv-x="277" 
d="M218 55l-164 140v126l164 140v-131l-88 -72v-2l88 -72v-129z" />
    <glyph glyph-name="OE" unicode="&#x152;" horiz-adv-x="1053" 
d="M355 -16c-190 0 -331 158 -331 372s141 373 331 373c61 0 112 -21 155 -56v42h497v-125h-354v-161h306v-117h-306v-181h365v-131h-508v43c-44 -37 -96 -59 -155 -59zM361 103c68 0 118 24 149 72v359c-31 49 -81 76 -149 76c-121 0 -189 -111 -189 -254
c0 -142 68 -253 189 -253z" />
    <glyph glyph-name="quoteleft" unicode="&#x2018;" horiz-adv-x="201" 
d="M32 450v118c0 91 70 139 137 150v-47c-31 -10 -68 -41 -68 -91h66v-130h-135z" />
    <glyph glyph-name="quoteright" unicode="&#x2019;" horiz-adv-x="201" 
d="M32 447v47c31 10 68 41 68 91h-66v130h135v-118c0 -91 -70 -139 -137 -150z" />
    <glyph glyph-name="quotedblleft" unicode="&#x201c;" horiz-adv-x="399" 
d="M230 450v118c0 91 70 139 137 150v-47c-31 -10 -68 -41 -68 -91h66v-130h-135zM32 450v118c0 91 70 139 137 150v-47c-31 -10 -68 -41 -68 -91h66v-130h-135z" />
    <glyph glyph-name="quotedblright" unicode="&#x201d;" horiz-adv-x="399" 
d="M230 447v47c31 10 68 41 68 91h-66v130h135v-118c0 -91 -70 -139 -137 -150zM32 447v47c31 10 68 41 68 91h-66v130h135v-118c0 -91 -70 -139 -137 -150z" />
    <glyph glyph-name="bullet" unicode="&#x2022;" horiz-adv-x="351" 
d="M176 182c-77 0 -140 63 -140 139c0 77 63 140 140 140c76 0 139 -63 139 -140c0 -76 -63 -139 -139 -139z" />
    <glyph glyph-name="endash" unicode="&#x2013;" 
d="M0 196v117h500v-117h-500z" />
    <glyph glyph-name="emdash" unicode="&#x2014;" horiz-adv-x="1000" 
d="M100 196v117h800v-117h-800z" />
    <glyph glyph-name="tilde" unicode="&#x2dc;" 
d="M308 575c-48 0 -82 33 -109 33c-15 0 -24 -10 -27 -31h-72c0 79 39 118 90 118c48 0 82 -35 109 -35c19 0 25 12 29 31h72c0 -68 -33 -116 -92 -116z" />
    <glyph glyph-name="trademark" unicode="&#x2122;" horiz-adv-x="679" 
d="M314 436v279h108l49 -176h2l50 176h108v-279h-72v181h-2l-55 -181h-61l-54 181h-2v-181h-71zM31 651v64h242v-64h-82v-215h-78v215h-82z" />
    <glyph glyph-name="scaron" unicode="&#x161;" horiz-adv-x="485" 
d="M252 -15c-149 0 -232 72 -240 181h126c9 -60 51 -85 112 -85c60 0 94 23 94 59c0 48 -66 55 -135 68c-92 18 -182 42 -182 155c0 111 92 164 209 164c136 0 209 -66 220 -170h-123c-7 56 -40 75 -99 75c-53 0 -88 -20 -88 -57c0 -45 69 -47 141 -63
c86 -19 181 -41 181 -162c0 -103 -89 -165 -216 -165zM171 576l-96 126h118l48 -69h2l49 69h119l-94 -126h-146z" />
    <glyph glyph-name="guilsinglright" unicode="&#x203a;" horiz-adv-x="277" 
d="M59 461l164 -140v-126l-164 -140v131l88 72v2l-88 72v129z" />
    <glyph glyph-name="oe" unicode="&#x153;" horiz-adv-x="943" 
d="M287 -15c-159 0 -268 119 -268 271s109 271 268 271c84 0 152 -32 197 -87c43 53 107 87 187 87c164 0 253 -126 253 -309h-372c11 -80 54 -128 131 -128c53 0 84 24 99 63h134c-19 -91 -100 -168 -232 -168c-91 0 -157 33 -201 86c-45 -53 -112 -86 -196 -86zM287 89
c84 0 130 67 130 167s-46 168 -130 168s-130 -68 -130 -168s46 -167 130 -167zM673 422c-72 0 -107 -42 -119 -110h228c-4 65 -46 110 -109 110z" />
    <glyph glyph-name="Ydieresis" unicode="&#x178;" horiz-adv-x="629" 
d="M242 0v276l-238 439h158l108 -212c11 -23 23 -47 32 -67c5 -12 10 -24 15 -35h2c5 11 11 23 16 35c9 20 21 44 32 67l106 212h152l-238 -439v-276h-145zM352 753v114h128v-114h-128zM149 753v114h128v-114h-128z" />
    <glyph glyph-name="uni00A0" unicode="&#xa0;" horiz-adv-x="168" 
 />
    <glyph glyph-name="exclamdown" unicode="&#xa1;" horiz-adv-x="254" 
d="M56 -127v158l38 348h66l38 -348v-158h-142zM54 443v145h146v-145h-146z" />
    <glyph glyph-name="cent" unicode="&#xa2;" horiz-adv-x="525" 
d="M248 -100v87c-141 16 -229 127 -229 269c0 144 88 256 229 269v68h60v-68c113 -12 183 -85 200 -186h-133c-8 36 -32 64 -67 75v-317c39 9 66 37 74 84h131c-8 -102 -85 -184 -205 -195v-86h-60zM157 256c0 -84 28 -144 91 -159v317c-60 -15 -91 -74 -91 -158z" />
    <glyph glyph-name="sterling" unicode="&#xa3;" horiz-adv-x="579" 
d="M31 290v87h45c-17 33 -31 68 -31 115c0 117 90 207 254 207c73 0 134 -18 181 -58s72 -96 75 -187h-136c-1 96 -51 134 -119 134c-72 0 -109 -40 -109 -100c0 -40 18 -75 35 -111h147v-87h-117c1 -9 2 -18 2 -27c0 -56 -31 -101 -79 -137l2 -2c23 8 46 18 77 18
c73 0 92 -30 148 -30c39 0 74 22 98 43l62 -107c-40 -35 -98 -62 -159 -62c-97 0 -131 47 -208 47c-40 0 -71 -21 -102 -41l-70 104c55 36 96 82 96 146c0 17 -3 33 -7 48h-85z" />
    <glyph glyph-name="currency" unicode="&#xa4;" horiz-adv-x="512" 
d="M256 146c-35 0 -66 6 -92 19l-66 -67l-84 82l64 64c-17 31 -25 66 -25 105c0 38 8 73 25 104l-64 66l84 82l65 -68c28 13 59 20 93 20c33 0 64 -7 92 -20l66 68l84 -82l-66 -66c17 -31 26 -65 26 -104c0 -38 -8 -73 -25 -104l65 -65l-84 -82l-66 67
c-29 -13 -59 -19 -92 -19zM256 238c56 0 86 43 86 111s-30 112 -86 112c-57 0 -89 -44 -89 -112s32 -111 89 -111z" />
    <glyph glyph-name="yen" unicode="&#xa5;" horiz-adv-x="618" 
d="M68 263v59h147l-211 364h156l108 -202c9 -19 20 -39 28 -56c5 -10 9 -20 13 -29h2c4 9 8 19 13 29c8 17 17 36 28 56l107 202h152l-212 -364h150v-59h-174v-63h174v-59h-174v-141h-133v141h-174v59h174v63h-174z" />
    <glyph glyph-name="brokenbar" unicode="&#xa6;" horiz-adv-x="210" 
d="M64 -131v392h83v-392h-83zM64 375v379h83v-379h-83z" />
    <glyph glyph-name="section" unicode="&#xa7;" horiz-adv-x="591" 
d="M306 -171c-160 0 -242 94 -245 207h132c3 -64 45 -100 105 -100c51 0 82 28 82 63c0 48 -48 58 -152 101c-133 53 -204 101 -204 199c0 60 40 109 120 132c-39 27 -60 58 -60 115c0 96 88 153 207 153c136 0 209 -72 217 -176h-123c-7 47 -37 74 -90 74
c-52 0 -76 -20 -76 -51c0 -37 43 -50 135 -87c111 -45 212 -79 212 -192c0 -73 -40 -114 -112 -137c36 -23 70 -64 70 -132c0 -109 -93 -169 -218 -169zM302 339c-33 13 -66 25 -89 36c-39 -11 -56 -33 -56 -60c0 -37 29 -49 129 -94c23 -11 56 -27 87 -40
c39 11 62 35 62 62c0 43 -62 67 -133 96z" />
    <glyph glyph-name="dieresis" unicode="&#xa8;" 
d="M297 581v114h128v-114h-128zM74 581v114h128v-114h-128z" />
    <glyph glyph-name="copyright" unicode="&#xa9;" horiz-adv-x="815" 
d="M408 -17c-206 0 -368 158 -368 372s162 373 368 373c205 0 367 -159 367 -373s-162 -372 -367 -372zM408 32c176 0 309 138 309 323s-133 323 -309 323c-177 0 -310 -138 -310 -323s133 -323 310 -323zM411 133c-128 0 -214 95 -214 225c0 131 83 227 215 227
c110 0 178 -67 189 -158h-108c-7 37 -35 65 -82 65c-68 0 -101 -58 -101 -134c0 -77 39 -133 102 -133c51 0 80 33 85 73h108c-3 -45 -22 -87 -53 -116c-33 -33 -80 -49 -141 -49z" />
    <glyph glyph-name="ordfeminine" unicode="&#xaa;" horiz-adv-x="497" 
d="M459 236h-122c-7 9 -12 30 -15 50h-2c-23 -32 -58 -60 -130 -60c-90 0 -160 49 -160 140c0 98 78 131 185 144c75 9 105 18 105 50c0 31 -23 51 -71 51c-56 0 -80 -22 -84 -61h-114c3 80 66 149 198 149c136 0 195 -61 195 -166v-230c0 -34 5 -54 15 -61v-6zM220 312
c67 0 103 40 103 83v68c-21 -12 -49 -19 -80 -26c-60 -13 -89 -29 -89 -68s27 -57 66 -57z" />
    <glyph glyph-name="guillemotleft" unicode="&#xab;" horiz-adv-x="447" 
d="M388 59l-144 133v132l144 133v-128l-80 -71v-2l80 -71v-126zM198 59l-144 133v132l144 133v-128l-80 -71v-2l80 -71v-126z" />
    <glyph glyph-name="logicalnot" unicode="&#xac;" horiz-adv-x="513" 
d="M35 318v100h423v-273h-104v173h-319z" />
    <glyph glyph-name="uni00AD" unicode="&#xad;" horiz-adv-x="339" 
d="M34 189v117h271v-117h-271z" />
    <glyph glyph-name="registered" unicode="&#xae;" horiz-adv-x="530" 
d="M265 244c-134 0 -239 103 -239 242s105 242 239 242c133 0 239 -103 239 -242s-106 -242 -239 -242zM265 281c113 0 195 88 195 205s-82 204 -195 204c-112 0 -195 -87 -195 -204s83 -205 195 -205zM163 360v256h124c51 0 92 -27 92 -75c0 -31 -15 -51 -44 -61v-2
c24 -7 33 -22 38 -46c7 -32 1 -62 12 -67v-5h-68c-7 4 -8 34 -11 59c-2 23 -15 34 -40 34h-34v-93h-69zM232 561v-58h43c24 0 36 10 36 29s-12 29 -36 29h-43z" />
    <glyph glyph-name="macron" unicode="&#xaf;" 
d="M113 592v97h284v-97h-284z" />
    <glyph glyph-name="degree" unicode="&#xb0;" horiz-adv-x="356" 
d="M178 418c-80 0 -146 61 -146 140s66 142 146 142s146 -63 146 -142s-66 -140 -146 -140zM178 481c45 0 74 34 74 77s-29 79 -74 79s-73 -36 -73 -79s28 -77 73 -77z" />
    <glyph glyph-name="plusminus" unicode="&#xb1;" horiz-adv-x="569" 
d="M35 318v100h197v163h104v-163h198v-100h-198v-163h-104v163h-197zM35 0v100h499v-100h-499z" />
    <glyph glyph-name="twosuperior" unicode="&#xb2;" horiz-adv-x="372" 
d="M344 318h-318c1 79 44 126 96 162c67 48 117 64 117 112c0 29 -16 49 -49 49c-37 0 -61 -26 -61 -73h-97c0 100 61 155 161 155c96 0 149 -58 149 -127c0 -60 -35 -91 -75 -120c-39 -28 -84 -49 -104 -76h181v-82z" />
    <glyph glyph-name="threesuperior" unicode="&#xb3;" horiz-adv-x="374" 
d="M188 309c-116 0 -168 57 -169 144h103c1 -40 17 -68 64 -68c39 0 57 21 57 52c0 34 -21 51 -63 51h-24v72h21c38 0 57 15 57 45c0 27 -15 43 -47 43c-40 0 -53 -25 -56 -57h-100c3 76 59 132 159 132c88 0 149 -41 149 -112c0 -40 -26 -63 -61 -78v-2
c43 -15 74 -45 74 -98c0 -85 -75 -124 -164 -124z" />
    <glyph glyph-name="acute" unicode="&#xb4;" 
d="M397 718l-108 -141h-106l55 141h159z" />
    <glyph glyph-name="mu" unicode="&#xb5;" horiz-adv-x="547" 
d="M44 -168v681h135v-319c0 -60 26 -93 85 -93c64 0 103 48 103 116v296h136v-513h-131v60h-3c-33 -47 -73 -74 -129 -74c-29 0 -45 7 -58 16h-3v-170h-135z" />
    <glyph glyph-name="paragraph" unicode="&#xb6;" horiz-adv-x="578" 
d="M274 341h-53c-121 0 -194 74 -194 186c0 56 20 103 56 138c35 33 84 50 149 50h291v-715h-90v634h-69v-634h-90v341z" />
    <glyph glyph-name="periodcentered" unicode="&#xb7;" horiz-adv-x="218" 
d="M36 243v145h146v-145h-146z" />
    <glyph glyph-name="cedilla" unicode="&#xb8;" 
d="M223 -192c-45 0 -79 12 -106 29l18 32c20 -9 46 -15 70 -15c31 0 57 10 57 31c0 19 -18 29 -41 29c-15 0 -26 -3 -37 -7l-16 22l71 71h59l-60 -50v-2c53 8 106 -11 106 -64c0 -48 -53 -76 -121 -76z" />
    <glyph glyph-name="onesuperior" unicode="&#xb9;" horiz-adv-x="267" 
d="M113 318v249h-91v71c57 3 99 27 110 80h85v-400h-104z" />
    <glyph glyph-name="ordmasculine" unicode="&#xba;" horiz-adv-x="523" 
d="M262 222c-143 0 -238 105 -238 238c0 135 95 239 238 239c142 0 237 -104 237 -239c0 -133 -95 -238 -237 -238zM262 317c72 0 108 59 108 143s-36 144 -108 144s-109 -60 -109 -144s37 -143 109 -143z" />
    <glyph glyph-name="guillemotright" unicode="&#xbb;" horiz-adv-x="447" 
d="M59 457l144 -133v-132l-144 -133v128l80 71v2l-80 71v126zM249 457l144 -133v-132l-144 -133v128l80 71v2l-80 71v126z" />
    <glyph glyph-name="onequarter" unicode="&#xbc;" horiz-adv-x="821" 
d="M116 318v249h-91v71c57 3 99 27 110 80h85v-400h-104zM105 0l496 715h90l-497 -715h-89zM634 0v84h-189v91l188 227h103v-242h59v-76h-59v-84h-102zM524 161v-1h110v133h-1z" />
    <glyph glyph-name="onehalf" unicode="&#xbd;" horiz-adv-x="827" 
d="M116 318v249h-91v71c57 3 99 27 110 80h85v-400h-104zM88 0l496 715h90l-497 -715h-89zM796 0h-318c1 79 44 126 96 162c67 48 117 64 117 112c0 29 -16 49 -49 49c-37 0 -61 -26 -61 -73h-97c0 100 61 155 161 155c96 0 149 -58 149 -127c0 -60 -32 -93 -72 -122
c-39 -28 -85 -49 -105 -74h179v-82z" />
    <glyph glyph-name="threequarters" unicode="&#xbe;" horiz-adv-x="864" 
d="M191 309c-116 0 -168 57 -169 144h103c1 -40 17 -68 64 -68c39 0 57 21 57 52c0 34 -21 51 -63 51h-24v72h21c38 0 57 15 57 45c0 27 -15 43 -47 43c-40 0 -53 -25 -56 -57h-100c3 76 59 132 159 132c88 0 149 -41 149 -112c0 -40 -26 -63 -61 -78v-2
c43 -15 74 -45 74 -98c0 -85 -75 -124 -164 -124zM169 0l496 715h90l-497 -715h-89zM677 0v84h-189v91l188 227h103v-242h59v-76h-59v-84h-102zM567 161v-1h110v133h-1z" />
    <glyph glyph-name="questiondown" unicode="&#xbf;" horiz-adv-x="525" 
d="M259 -140c-153 0 -243 91 -243 209c0 99 52 140 95 172c76 57 104 67 104 138h122c0 -116 -43 -147 -104 -190c-43 -32 -81 -55 -81 -116s45 -98 106 -98c75 0 124 46 125 125h129c-3 -132 -90 -240 -253 -240zM203 443v145h146v-145h-146z" />
    <glyph glyph-name="Agrave" unicode="&#xc0;" horiz-adv-x="659" 
d="M3 0l249 715h150l252 -715h-151l-48 152h-258l-47 -152h-147zM295 469l-64 -206h189l-64 206c-7 19 -12 46 -19 69c-3 13 -7 27 -10 41h-2c-4 -14 -8 -28 -11 -41c-7 -23 -12 -50 -19 -69zM279 753l-95 125h159l42 -125h-106z" />
    <glyph glyph-name="Aacute" unicode="&#xc1;" horiz-adv-x="659" 
d="M3 0l249 715h150l252 -715h-151l-48 152h-258l-47 -152h-147zM295 469l-64 -206h189l-64 206c-7 19 -12 46 -19 69c-3 13 -7 27 -10 41h-2c-4 -14 -8 -28 -11 -41c-7 -23 -12 -50 -19 -69zM474 878l-95 -125h-106l42 125h159z" />
    <glyph glyph-name="Acircumflex" unicode="&#xc2;" horiz-adv-x="659" 
d="M3 0l249 715h150l252 -715h-151l-48 152h-258l-47 -152h-147zM295 469l-64 -206h189l-64 206c-7 19 -12 46 -19 69c-3 13 -7 27 -10 41h-2c-4 -14 -8 -28 -11 -41c-7 -23 -12 -50 -19 -69zM159 753l94 114h146l96 -114h-118l-48 57h-2l-49 -57h-119z" />
    <glyph glyph-name="Atilde" unicode="&#xc3;" horiz-adv-x="659" 
d="M3 0l249 715h150l252 -715h-151l-48 152h-258l-47 -152h-147zM295 469l-64 -206h189l-64 206c-7 19 -12 46 -19 69c-3 13 -7 27 -10 41h-2c-4 -14 -8 -28 -11 -41c-7 -23 -12 -50 -19 -69zM385 755c-48 0 -82 33 -109 33c-15 0 -24 -10 -27 -31h-72c0 79 39 118 90 118
c48 0 82 -35 109 -35c19 0 25 12 29 31h72c0 -68 -33 -116 -92 -116z" />
    <glyph glyph-name="Adieresis" unicode="&#xc4;" horiz-adv-x="659" 
d="M3 0l249 715h150l252 -715h-151l-48 152h-258l-47 -152h-147zM295 469l-64 -206h189l-64 206c-7 19 -12 46 -19 69c-3 13 -7 27 -10 41h-2c-4 -14 -8 -28 -11 -41c-7 -23 -12 -50 -19 -69zM365 753v114h128v-114h-128zM162 753v114h128v-114h-128z" />
    <glyph glyph-name="Aring" unicode="&#xc5;" horiz-adv-x="659" 
d="M3 0l249 715h150l252 -715h-151l-48 152h-258l-47 -152h-147zM295 469l-64 -206h189l-64 206c-7 19 -12 46 -19 69c-3 13 -7 27 -10 41h-2c-4 -14 -8 -28 -11 -41c-7 -23 -12 -50 -19 -69zM327 742c-53 0 -97 41 -97 94c0 52 44 94 97 94s97 -42 97 -94
c0 -53 -44 -94 -97 -94zM327 789c27 0 45 20 45 47s-18 47 -45 47s-45 -20 -45 -47s18 -47 45 -47z" />
    <glyph glyph-name="AE" unicode="&#xc6;" horiz-adv-x="972" 
d="M4 0l248 715h677v-125h-354v-161h306v-117h-306v-181h365v-131h-514v152h-224l-51 -152h-147zM349 590l-111 -331h188v331h-77z" />
    <glyph glyph-name="Ccedilla" unicode="&#xc7;" horiz-adv-x="684" 
d="M331 -192c-45 0 -79 12 -106 29l18 32c20 -9 46 -15 70 -15c31 0 57 10 57 31c0 19 -18 29 -41 29c-15 0 -26 -3 -37 -7l-16 22l57 58c-182 16 -309 164 -309 368c0 212 132 374 343 374c176 0 279 -105 295 -241h-144c-13 72 -67 119 -151 119
c-132 0 -195 -111 -195 -252c0 -147 75 -251 196 -251c85 0 145 50 154 126h142c-4 -64 -31 -124 -79 -169c-47 -43 -109 -71 -197 -75l-42 -36v-2c53 8 106 -11 106 -64c0 -48 -53 -76 -121 -76z" />
    <glyph glyph-name="Egrave" unicode="&#xc8;" horiz-adv-x="619" 
d="M55 0v715h526v-122h-381v-160h334v-119h-334v-193h384v-121h-529zM277 753l-95 125h159l42 -125h-106z" />
    <glyph glyph-name="Eacute" unicode="&#xc9;" horiz-adv-x="619" 
d="M55 0v715h526v-122h-381v-160h334v-119h-334v-193h384v-121h-529zM472 878l-95 -125h-106l42 125h159z" />
    <glyph glyph-name="Ecircumflex" unicode="&#xca;" horiz-adv-x="619" 
d="M55 0v715h526v-122h-381v-160h334v-119h-334v-193h384v-121h-529zM157 753l94 114h146l96 -114h-118l-48 57h-2l-49 -57h-119z" />
    <glyph glyph-name="Edieresis" unicode="&#xcb;" horiz-adv-x="619" 
d="M55 0v715h526v-122h-381v-160h334v-119h-334v-193h384v-121h-529zM363 753v114h128v-114h-128zM160 753v114h128v-114h-128z" />
    <glyph glyph-name="Igrave" unicode="&#xcc;" horiz-adv-x="257" 
d="M56 0v715h145v-715h-145zM80 753l-95 125h159l42 -125h-106z" />
    <glyph glyph-name="Iacute" unicode="&#xcd;" horiz-adv-x="257" 
d="M56 0v715h145v-715h-145zM275 878l-95 -125h-106l42 125h159z" />
    <glyph glyph-name="Icircumflex" unicode="&#xce;" horiz-adv-x="257" 
d="M56 0v715h145v-715h-145zM-40 753l94 114h146l96 -114h-118l-48 57h-2l-49 -57h-119z" />
    <glyph glyph-name="Idieresis" unicode="&#xcf;" horiz-adv-x="257" 
d="M56 0v715h145v-715h-145zM166 753v114h128v-114h-128zM-37 753v114h128v-114h-128z" />
    <glyph glyph-name="Eth" unicode="&#xd0;" horiz-adv-x="682" 
d="M1 304v117h64v294h279c192 0 314 -154 314 -365c0 -117 -38 -217 -114 -281c-53 -44 -121 -69 -212 -69h-267v304h-64zM210 125h112c136 0 189 82 189 225c0 142 -62 241 -185 241h-116v-170h165v-117h-165v-179z" />
    <glyph glyph-name="Ntilde" unicode="&#xd1;" horiz-adv-x="686" 
d="M55 0v715h147l238 -399c11 -20 23 -45 34 -65c6 -12 11 -24 16 -35h2c-1 14 -1 28 -2 43c-1 25 -2 56 -2 81v375h143v-715h-140l-244 395c-12 19 -23 44 -34 64c-6 12 -12 24 -17 35h-2c1 -15 1 -29 2 -44c1 -25 2 -56 2 -81v-369h-143zM408 755c-48 0 -82 33 -109 33
c-15 0 -24 -10 -27 -31h-72c0 79 39 118 90 118c48 0 82 -35 109 -35c19 0 25 12 29 31h72c0 -68 -33 -116 -92 -116z" />
    <glyph glyph-name="Ograve" unicode="&#xd2;" horiz-adv-x="737" 
d="M369 -16c-212 0 -345 158 -345 372s133 373 345 373c211 0 344 -159 344 -373s-133 -372 -344 -372zM370 103c131 0 195 111 195 253c0 143 -64 254 -195 254s-198 -111 -198 -254c0 -142 67 -253 198 -253zM320 753l-95 125h159l42 -125h-106z" />
    <glyph glyph-name="Oacute" unicode="&#xd3;" horiz-adv-x="737" 
d="M369 -16c-212 0 -345 158 -345 372s133 373 345 373c211 0 344 -159 344 -373s-133 -372 -344 -372zM370 103c131 0 195 111 195 253c0 143 -64 254 -195 254s-198 -111 -198 -254c0 -142 67 -253 198 -253zM515 878l-95 -125h-106l42 125h159z" />
    <glyph glyph-name="Ocircumflex" unicode="&#xd4;" horiz-adv-x="737" 
d="M369 -16c-212 0 -345 158 -345 372s133 373 345 373c211 0 344 -159 344 -373s-133 -372 -344 -372zM370 103c131 0 195 111 195 253c0 143 -64 254 -195 254s-198 -111 -198 -254c0 -142 67 -253 198 -253zM200 753l94 114h146l96 -114h-118l-48 57h-2l-49 -57h-119z
" />
    <glyph glyph-name="Otilde" unicode="&#xd5;" horiz-adv-x="737" 
d="M369 -16c-212 0 -345 158 -345 372s133 373 345 373c211 0 344 -159 344 -373s-133 -372 -344 -372zM370 103c131 0 195 111 195 253c0 143 -64 254 -195 254s-198 -111 -198 -254c0 -142 67 -253 198 -253zM426 755c-48 0 -82 33 -109 33c-15 0 -24 -10 -27 -31h-72
c0 79 39 118 90 118c48 0 82 -35 109 -35c19 0 25 12 29 31h72c0 -68 -33 -116 -92 -116z" />
    <glyph glyph-name="Odieresis" unicode="&#xd6;" horiz-adv-x="737" 
d="M369 -16c-212 0 -345 158 -345 372s133 373 345 373c211 0 344 -159 344 -373s-133 -372 -344 -372zM370 103c131 0 195 111 195 253c0 143 -64 254 -195 254s-198 -111 -198 -254c0 -142 67 -253 198 -253zM406 753v114h128v-114h-128zM203 753v114h128v-114h-128z" />
    <glyph glyph-name="multiply" unicode="&#xd7;" horiz-adv-x="568" 
d="M121 85l-70 66l166 171l-166 171l70 66l163 -168l163 168l70 -66l-166 -171l166 -171l-70 -66l-163 168z" />
    <glyph glyph-name="Oslash" unicode="&#xd8;" horiz-adv-x="737" 
d="M79 -21l-49 42l74 84c-52 65 -80 151 -80 251c0 214 133 373 345 373c89 0 165 -29 222 -78l66 74l49 -42l-71 -79c51 -65 78 -151 78 -248c0 -214 -133 -372 -344 -372c-88 0 -162 27 -219 74zM172 356c0 -55 9 -103 28 -144l304 341c-32 36 -77 57 -134 57
c-131 0 -198 -111 -198 -254zM370 103c131 0 195 111 195 253c0 53 -9 99 -26 140l-301 -339c32 -35 76 -54 132 -54z" />
    <glyph glyph-name="Ugrave" unicode="&#xd9;" horiz-adv-x="657" 
d="M331 -12c-187 0 -282 86 -282 242v485h145v-485c0 -75 37 -126 134 -126c92 0 135 53 135 128v483h145v-485c0 -153 -93 -242 -277 -242zM279 753l-95 125h159l42 -125h-106z" />
    <glyph glyph-name="Uacute" unicode="&#xda;" horiz-adv-x="657" 
d="M331 -12c-187 0 -282 86 -282 242v485h145v-485c0 -75 37 -126 134 -126c92 0 135 53 135 128v483h145v-485c0 -153 -93 -242 -277 -242zM474 878l-95 -125h-106l42 125h159z" />
    <glyph glyph-name="Ucircumflex" unicode="&#xdb;" horiz-adv-x="657" 
d="M331 -12c-187 0 -282 86 -282 242v485h145v-485c0 -75 37 -126 134 -126c92 0 135 53 135 128v483h145v-485c0 -153 -93 -242 -277 -242zM159 753l94 114h146l96 -114h-118l-48 57h-2l-49 -57h-119z" />
    <glyph glyph-name="Udieresis" unicode="&#xdc;" horiz-adv-x="657" 
d="M331 -12c-187 0 -282 86 -282 242v485h145v-485c0 -75 37 -126 134 -126c92 0 135 53 135 128v483h145v-485c0 -153 -93 -242 -277 -242zM365 753v114h128v-114h-128zM162 753v114h128v-114h-128z" />
    <glyph glyph-name="Yacute" unicode="&#xdd;" horiz-adv-x="629" 
d="M242 0v276l-238 439h158l108 -212c11 -23 23 -47 32 -67c5 -12 10 -24 15 -35h2c5 11 11 23 16 35c9 20 21 44 32 67l106 212h152l-238 -439v-276h-145zM461 878l-95 -125h-106l42 125h159z" />
    <glyph glyph-name="Thorn" unicode="&#xde;" horiz-adv-x="633" 
d="M55 0v715h150v-109h164c82 -1 144 -23 187 -67c40 -41 64 -96 64 -163c0 -135 -90 -226 -239 -226h-176v-150h-150zM357 480h-152v-212h150c76 0 116 42 116 107c0 68 -42 105 -114 105z" />
    <glyph glyph-name="germandbls" unicode="&#xdf;" horiz-adv-x="548" 
d="M298 -9c-21 0 -44 2 -64 7v98h2c99 -12 158 29 158 138c0 88 -36 138 -128 138h-31v83h26c64 0 103 28 103 88c0 51 -29 85 -85 85c-63 0 -99 -35 -99 -106v-522h-136v524c0 124 89 205 234 205c130 0 215 -70 215 -182c0 -63 -33 -103 -92 -126v-3
c88 -27 128 -100 128 -188c0 -160 -99 -239 -231 -239z" />
    <glyph glyph-name="agrave" unicode="&#xe0;" horiz-adv-x="522" 
d="M498 0h-131c-8 11 -13 34 -16 57h-2c-26 -39 -63 -69 -151 -69c-105 0 -179 54 -179 157c0 113 91 149 206 165c85 12 124 19 124 58c0 37 -29 61 -86 61c-64 0 -95 -23 -99 -72h-121c3 90 73 169 221 169c153 0 216 -69 216 -189v-261c0 -39 6 -62 18 -71v-5zM231 83
c77 0 121 48 121 98v77c-24 -15 -60 -22 -95 -30c-72 -16 -106 -32 -106 -80s32 -65 80 -65zM217 577l-108 141h159l55 -141h-106z" />
    <glyph glyph-name="aacute" unicode="&#xe1;" horiz-adv-x="522" 
d="M498 0h-131c-8 11 -13 34 -16 57h-2c-26 -39 -63 -69 -151 -69c-105 0 -179 54 -179 157c0 113 91 149 206 165c85 12 124 19 124 58c0 37 -29 61 -86 61c-64 0 -95 -23 -99 -72h-121c3 90 73 169 221 169c153 0 216 -69 216 -189v-261c0 -39 6 -62 18 -71v-5zM231 83
c77 0 121 48 121 98v77c-24 -15 -60 -22 -95 -30c-72 -16 -106 -32 -106 -80s32 -65 80 -65zM425 718l-108 -141h-106l55 141h159z" />
    <glyph glyph-name="acircumflex" unicode="&#xe2;" horiz-adv-x="522" 
d="M498 0h-131c-8 11 -13 34 -16 57h-2c-26 -39 -63 -69 -151 -69c-105 0 -179 54 -179 157c0 113 91 149 206 165c85 12 124 19 124 58c0 37 -29 61 -86 61c-64 0 -95 -23 -99 -72h-121c3 90 73 169 221 169c153 0 216 -69 216 -189v-261c0 -39 6 -62 18 -71v-5zM231 83
c77 0 121 48 121 98v77c-24 -15 -60 -22 -95 -30c-72 -16 -106 -32 -106 -80s32 -65 80 -65zM97 581l94 126h146l96 -126h-118l-48 69h-2l-49 -69h-119z" />
    <glyph glyph-name="atilde" unicode="&#xe3;" horiz-adv-x="522" 
d="M498 0h-131c-8 11 -13 34 -16 57h-2c-26 -39 -63 -69 -151 -69c-105 0 -179 54 -179 157c0 113 91 149 206 165c85 12 124 19 124 58c0 37 -29 61 -86 61c-64 0 -95 -23 -99 -72h-121c3 90 73 169 221 169c153 0 216 -69 216 -189v-261c0 -39 6 -62 18 -71v-5zM231 83
c77 0 121 48 121 98v77c-24 -15 -60 -22 -95 -30c-72 -16 -106 -32 -106 -80s32 -65 80 -65zM323 575c-48 0 -82 33 -109 33c-15 0 -24 -10 -27 -31h-72c0 79 39 118 90 118c48 0 82 -35 109 -35c19 0 25 12 29 31h72c0 -68 -33 -116 -92 -116z" />
    <glyph glyph-name="adieresis" unicode="&#xe4;" horiz-adv-x="522" 
d="M498 0h-131c-8 11 -13 34 -16 57h-2c-26 -39 -63 -69 -151 -69c-105 0 -179 54 -179 157c0 113 91 149 206 165c85 12 124 19 124 58c0 37 -29 61 -86 61c-64 0 -95 -23 -99 -72h-121c3 90 73 169 221 169c153 0 216 -69 216 -189v-261c0 -39 6 -62 18 -71v-5zM231 83
c77 0 121 48 121 98v77c-24 -15 -60 -22 -95 -30c-72 -16 -106 -32 -106 -80s32 -65 80 -65zM313 581v114h128v-114h-128zM90 581v114h128v-114h-128z" />
    <glyph glyph-name="aring" unicode="&#xe5;" horiz-adv-x="522" 
d="M498 0h-131c-8 11 -13 34 -16 57h-2c-26 -39 -63 -69 -151 -69c-105 0 -179 54 -179 157c0 113 91 149 206 165c85 12 124 19 124 58c0 37 -29 61 -86 61c-64 0 -95 -23 -99 -72h-121c3 90 73 169 221 169c153 0 216 -69 216 -189v-261c0 -39 6 -62 18 -71v-5zM231 83
c77 0 121 48 121 98v77c-24 -15 -60 -22 -95 -30c-72 -16 -106 -32 -106 -80s32 -65 80 -65zM265 561c-53 0 -97 41 -97 94c0 52 44 94 97 94s97 -42 97 -94c0 -53 -44 -94 -97 -94zM265 608c27 0 45 20 45 47s-18 47 -45 47s-45 -20 -45 -47s18 -47 45 -47z" />
    <glyph glyph-name="ae" unicode="&#xe6;" horiz-adv-x="872" 
d="M613 -15c-91 0 -157 32 -201 87h-3c-56 -59 -104 -84 -203 -84c-111 0 -187 55 -187 157c0 113 91 149 206 165c85 12 124 19 124 58c0 37 -29 61 -86 61c-64 0 -95 -23 -99 -72h-121c3 90 73 169 221 169c84 0 139 -20 174 -59c43 39 97 60 162 60
c164 0 253 -126 253 -309h-372c11 -80 54 -128 131 -128c53 0 84 24 99 63h134c-19 -91 -100 -168 -232 -168zM602 422c-72 0 -107 -42 -119 -110h228c-4 65 -46 110 -109 110zM231 83c77 0 121 48 121 98v77c-24 -15 -60 -22 -95 -30c-72 -16 -106 -32 -106 -80
s32 -65 80 -65z" />
    <glyph glyph-name="ccedilla" unicode="&#xe7;" horiz-adv-x="528" 
d="M248 -192c-45 0 -79 12 -106 29l18 32c20 -9 46 -15 70 -15c31 0 57 10 57 31c0 19 -18 29 -41 29c-15 0 -26 -3 -37 -7l-16 22l57 58c-143 13 -231 126 -231 269c0 152 100 271 256 271c133 0 214 -77 233 -188h-133c-9 45 -43 79 -94 79c-83 0 -124 -62 -124 -162
c0 -97 38 -162 122 -162c56 0 94 28 103 87h131c-9 -104 -83 -184 -207 -195l-43 -36v-2c53 8 106 -11 106 -64c0 -48 -53 -76 -121 -76z" />
    <glyph glyph-name="egrave" unicode="&#xe8;" horiz-adv-x="544" 
d="M285 -15c-171 0 -266 119 -266 272c0 152 104 270 253 270c164 0 253 -126 253 -309h-372c11 -80 54 -128 131 -128c53 0 84 24 99 63h134c-19 -91 -100 -168 -232 -168zM274 422c-72 0 -107 -42 -119 -110h228c-4 65 -46 110 -109 110zM224 577l-108 141h159l55 -141
h-106z" />
    <glyph glyph-name="eacute" unicode="&#xe9;" horiz-adv-x="544" 
d="M285 -15c-171 0 -266 119 -266 272c0 152 104 270 253 270c164 0 253 -126 253 -309h-372c11 -80 54 -128 131 -128c53 0 84 24 99 63h134c-19 -91 -100 -168 -232 -168zM274 422c-72 0 -107 -42 -119 -110h228c-4 65 -46 110 -109 110zM432 718l-108 -141h-106l55 141
h159z" />
    <glyph glyph-name="ecircumflex" unicode="&#xea;" horiz-adv-x="544" 
d="M285 -15c-171 0 -266 119 -266 272c0 152 104 270 253 270c164 0 253 -126 253 -309h-372c11 -80 54 -128 131 -128c53 0 84 24 99 63h134c-19 -91 -100 -168 -232 -168zM274 422c-72 0 -107 -42 -119 -110h228c-4 65 -46 110 -109 110zM104 581l94 126h146l96 -126h-118
l-48 69h-2l-49 -69h-119z" />
    <glyph glyph-name="edieresis" unicode="&#xeb;" horiz-adv-x="544" 
d="M285 -15c-171 0 -266 119 -266 272c0 152 104 270 253 270c164 0 253 -126 253 -309h-372c11 -80 54 -128 131 -128c53 0 84 24 99 63h134c-19 -91 -100 -168 -232 -168zM274 422c-72 0 -107 -42 -119 -110h228c-4 65 -46 110 -109 110zM320 581v114h128v-114h-128z
M97 581v114h128v-114h-128z" />
    <glyph glyph-name="igrave" unicode="&#xec;" horiz-adv-x="224" 
d="M44 0v513h136v-513h-136zM64 577l-108 141h159l55 -141h-106z" />
    <glyph glyph-name="iacute" unicode="&#xed;" horiz-adv-x="224" 
d="M44 0v513h136v-513h-136zM272 718l-108 -141h-106l55 141h159z" />
    <glyph glyph-name="icircumflex" unicode="&#xee;" horiz-adv-x="224" 
d="M44 0v513h136v-513h-136zM-30 581l71 126h139l73 -126h-107l-32 66h-2l-34 -66h-108z" />
    <glyph glyph-name="idieresis" unicode="&#xef;" horiz-adv-x="224" 
d="M44 0v513h136v-513h-136zM130 581v114h108v-114h-108zM-13 581v114h108v-114h-108z" />
    <glyph glyph-name="eth" unicode="&#xf0;" horiz-adv-x="571" 
d="M144 592l116 36c-35 32 -71 60 -110 87h164c23 -15 44 -31 65 -50l106 33l22 -50l-84 -26c72 -83 127 -197 127 -350c0 -151 -80 -287 -263 -287c-159 0 -268 119 -268 271c0 153 94 263 238 263c51 0 95 -21 126 -56h2c-20 45 -47 85 -82 122l-138 -43zM287 89
c84 0 130 67 130 167s-46 166 -130 166s-130 -66 -130 -166s46 -167 130 -167z" />
    <glyph glyph-name="ntilde" unicode="&#xf1;" horiz-adv-x="549" 
d="M177 513v-70h3c35 56 81 84 152 84c106 0 177 -81 177 -192v-335h-136v315c0 56 -32 94 -89 94c-60 0 -104 -47 -104 -118v-291h-136v513h133zM334 575c-48 0 -82 33 -109 33c-15 0 -24 -10 -27 -31h-72c0 79 39 118 90 118c48 0 82 -35 109 -35c19 0 25 12 29 31h72
c0 -68 -33 -116 -92 -116z" />
    <glyph glyph-name="ograve" unicode="&#xf2;" horiz-adv-x="574" 
d="M287 -15c-159 0 -268 119 -268 271s109 271 268 271s268 -119 268 -271s-109 -271 -268 -271zM287 89c84 0 130 67 130 167s-46 168 -130 168s-130 -68 -130 -168s46 -167 130 -167zM239 577l-108 141h159l55 -141h-106z" />
    <glyph glyph-name="oacute" unicode="&#xf3;" horiz-adv-x="574" 
d="M287 -15c-159 0 -268 119 -268 271s109 271 268 271s268 -119 268 -271s-109 -271 -268 -271zM287 89c84 0 130 67 130 167s-46 168 -130 168s-130 -68 -130 -168s46 -167 130 -167zM447 718l-108 -141h-106l55 141h159z" />
    <glyph glyph-name="ocircumflex" unicode="&#xf4;" horiz-adv-x="574" 
d="M287 -15c-159 0 -268 119 -268 271s109 271 268 271s268 -119 268 -271s-109 -271 -268 -271zM287 89c84 0 130 67 130 167s-46 168 -130 168s-130 -68 -130 -168s46 -167 130 -167zM119 581l94 126h146l96 -126h-118l-48 69h-2l-49 -69h-119z" />
    <glyph glyph-name="otilde" unicode="&#xf5;" horiz-adv-x="574" 
d="M287 -15c-159 0 -268 119 -268 271s109 271 268 271s268 -119 268 -271s-109 -271 -268 -271zM287 89c84 0 130 67 130 167s-46 168 -130 168s-130 -68 -130 -168s46 -167 130 -167zM345 575c-48 0 -82 33 -109 33c-15 0 -24 -10 -27 -31h-72c0 79 39 118 90 118
c48 0 82 -35 109 -35c19 0 25 12 29 31h72c0 -68 -33 -116 -92 -116z" />
    <glyph glyph-name="odieresis" unicode="&#xf6;" horiz-adv-x="574" 
d="M287 -15c-159 0 -268 119 -268 271s109 271 268 271s268 -119 268 -271s-109 -271 -268 -271zM287 89c84 0 130 67 130 167s-46 168 -130 168s-130 -68 -130 -168s46 -167 130 -167zM335 581v114h128v-114h-128zM112 581v114h128v-114h-128z" />
    <glyph glyph-name="divide" unicode="&#xf7;" horiz-adv-x="569" 
d="M211 74v133h146v-133h-146zM211 450v132h146v-132h-146zM35 278v100h499v-100h-499z" />
    <glyph glyph-name="oslash" unicode="&#xf8;" horiz-adv-x="574" 
d="M63 -36l-40 37l63 70c-43 48 -67 112 -67 185c0 152 109 271 268 271c64 0 120 -20 164 -53l61 67l39 -37l-60 -67c40 -47 64 -110 64 -181c0 -152 -109 -271 -268 -271c-63 0 -117 18 -160 49zM157 256c0 -35 5 -65 15 -90l202 222c-23 24 -52 36 -87 36
c-84 0 -130 -68 -130 -168zM287 89c84 0 130 67 130 167c0 31 -5 59 -14 84l-199 -220c22 -21 50 -31 83 -31z" />
    <glyph glyph-name="ugrave" unicode="&#xf9;" horiz-adv-x="543" 
d="M499 0h-131v60h-3c-35 -47 -75 -74 -147 -74c-115 0 -178 72 -178 185v342h135v-319c0 -60 26 -93 85 -93c64 0 103 48 103 116v296h136v-513zM223 577l-108 141h159l55 -141h-106z" />
    <glyph glyph-name="uacute" unicode="&#xfa;" horiz-adv-x="543" 
d="M499 0h-131v60h-3c-35 -47 -75 -74 -147 -74c-115 0 -178 72 -178 185v342h135v-319c0 -60 26 -93 85 -93c64 0 103 48 103 116v296h136v-513zM431 718l-108 -141h-106l55 141h159z" />
    <glyph glyph-name="ucircumflex" unicode="&#xfb;" horiz-adv-x="543" 
d="M499 0h-131v60h-3c-35 -47 -75 -74 -147 -74c-115 0 -178 72 -178 185v342h135v-319c0 -60 26 -93 85 -93c64 0 103 48 103 116v296h136v-513zM103 581l94 126h146l96 -126h-118l-48 69h-2l-49 -69h-119z" />
    <glyph glyph-name="udieresis" unicode="&#xfc;" horiz-adv-x="543" 
d="M499 0h-131v60h-3c-35 -47 -75 -74 -147 -74c-115 0 -178 72 -178 185v342h135v-319c0 -60 26 -93 85 -93c64 0 103 48 103 116v296h136v-513zM319 581v114h128v-114h-128zM96 581v114h128v-114h-128z" />
    <glyph glyph-name="yacute" unicode="&#xfd;" horiz-adv-x="497" 
d="M55 -168v107h48c55 0 76 27 76 70c0 28 -10 62 -39 139l-138 365h143l76 -231c8 -24 15 -51 22 -74c3 -13 7 -25 11 -38h2c3 13 6 25 9 38c5 23 13 50 21 74l72 231h137l-179 -526c-40 -115 -77 -155 -181 -155h-80zM408 718l-108 -141h-106l55 141h159z" />
    <glyph glyph-name="thorn" unicode="&#xfe;" horiz-adv-x="571" 
d="M330 -15c-72 0 -119 26 -148 73h-2v-226h-136v884h136v-265h3c28 43 75 76 146 76c136 0 223 -111 223 -271c0 -166 -90 -271 -222 -271zM301 98c69 0 113 57 113 154s-34 165 -118 165c-85 0 -119 -73 -119 -165c0 -93 43 -154 124 -154z" />
    <glyph glyph-name="ydieresis" unicode="&#xff;" horiz-adv-x="497" 
d="M55 -168v107h48c55 0 76 27 76 70c0 28 -10 62 -39 139l-138 365h143l76 -231c8 -24 15 -51 22 -74c3 -13 7 -25 11 -38h2c3 13 6 25 9 38c5 23 13 50 21 74l72 231h137l-179 -526c-40 -115 -77 -155 -181 -155h-80zM296 581v114h128v-114h-128zM73 581v114h128v-114
h-128z" />
    <glyph glyph-name="Amacron" unicode="&#x100;" horiz-adv-x="659" 
d="M3 0l249 715h150l252 -715h-151l-48 152h-258l-47 -152h-147zM295 469l-64 -206h189l-64 206c-7 19 -12 46 -19 69c-3 13 -7 27 -10 41h-2c-4 -14 -8 -28 -11 -41c-7 -23 -12 -50 -19 -69zM185 762v97h284v-97h-284z" />
    <glyph glyph-name="amacron" unicode="&#x101;" horiz-adv-x="522" 
d="M498 0h-131c-8 11 -13 34 -16 57h-2c-26 -39 -63 -69 -151 -69c-105 0 -179 54 -179 157c0 113 91 149 206 165c85 12 124 19 124 58c0 37 -29 61 -86 61c-64 0 -95 -23 -99 -72h-121c3 90 73 169 221 169c153 0 216 -69 216 -189v-261c0 -39 6 -62 18 -71v-5zM231 83
c77 0 121 48 121 98v77c-24 -15 -60 -22 -95 -30c-72 -16 -106 -32 -106 -80s32 -65 80 -65zM123 592v97h284v-97h-284z" />
    <glyph glyph-name="Abreve" unicode="&#x102;" horiz-adv-x="659" 
d="M3 0l249 715h150l252 -715h-151l-48 152h-258l-47 -152h-147zM295 469l-64 -206h189l-64 206c-7 19 -12 46 -19 69c-3 13 -7 27 -10 41h-2c-4 -14 -8 -28 -11 -41c-7 -23 -12 -50 -19 -69zM328 749c-84 0 -143 57 -148 133h78c4 -29 28 -48 69 -48c40 0 65 21 69 48h78
c-5 -74 -59 -133 -146 -133z" />
    <glyph glyph-name="abreve" unicode="&#x103;" horiz-adv-x="522" 
d="M498 0h-131c-8 11 -13 34 -16 57h-2c-26 -39 -63 -69 -151 -69c-105 0 -179 54 -179 157c0 113 91 149 206 165c85 12 124 19 124 58c0 37 -29 61 -86 61c-64 0 -95 -23 -99 -72h-121c3 90 73 169 221 169c153 0 216 -69 216 -189v-261c0 -39 6 -62 18 -71v-5zM231 83
c77 0 121 48 121 98v77c-24 -15 -60 -22 -95 -30c-72 -16 -106 -32 -106 -80s32 -65 80 -65zM266 573c-84 0 -143 57 -148 133h78c4 -29 28 -48 69 -48c40 0 65 21 69 48h78c-5 -74 -59 -133 -146 -133z" />
    <glyph glyph-name="Aogonek" unicode="&#x104;" horiz-adv-x="659" 
d="M600 -174c-75 0 -112 28 -112 85c0 40 26 70 55 89h-40l-48 152h-258l-47 -152h-147l249 715h150l250 -709c-43 -27 -61 -50 -61 -73c0 -19 10 -28 31 -28c13 0 23 3 32 7h2v-77c-12 -5 -29 -9 -56 -9zM295 469l-64 -206h189l-64 206c-7 19 -12 46 -19 69
c-3 13 -7 27 -10 41h-2c-4 -14 -8 -28 -11 -41c-7 -23 -12 -50 -19 -69z" />
    <glyph glyph-name="aogonek" unicode="&#x105;" horiz-adv-x="522" 
d="M403 0h-36c-8 11 -13 34 -16 57h-2c-26 -39 -63 -69 -151 -69c-105 0 -179 54 -179 157c0 113 91 149 206 165c85 12 124 19 124 58c0 37 -29 61 -86 61c-64 0 -95 -23 -99 -72h-121c3 90 73 169 221 169c153 0 216 -69 216 -189v-261c0 -39 6 -60 15 -71v-5
c-33 -23 -53 -44 -53 -67c0 -19 10 -28 31 -28c13 0 23 3 32 7h2v-77c-12 -5 -29 -9 -56 -9c-76 0 -112 29 -112 81c0 45 35 77 64 93zM231 83c77 0 121 48 121 98v77c-24 -15 -60 -22 -95 -30c-72 -16 -106 -32 -106 -80s32 -65 80 -65z" />
    <glyph glyph-name="Cacute" unicode="&#x106;" horiz-adv-x="684" 
d="M368 -15c-201 0 -344 155 -344 370c0 212 132 374 343 374c176 0 279 -105 295 -241h-144c-13 72 -67 119 -151 119c-132 0 -195 -111 -195 -252c0 -147 75 -251 196 -251c85 0 145 50 154 126h142c-4 -64 -31 -124 -79 -169c-49 -47 -117 -76 -217 -76zM503 878
l-95 -125h-106l42 125h159z" />
    <glyph glyph-name="cacute" unicode="&#x107;" horiz-adv-x="528" 
d="M282 -15c-162 0 -263 119 -263 271s100 271 256 271c133 0 214 -77 233 -188h-133c-9 45 -43 79 -94 79c-83 0 -124 -62 -124 -162c0 -97 38 -162 122 -162c56 0 94 28 103 87h131c-8 -108 -95 -196 -231 -196zM433 718l-108 -141h-106l55 141h159z" />
    <glyph glyph-name="Ccircumflex" unicode="&#x108;" horiz-adv-x="684" 
d="M368 -15c-201 0 -344 155 -344 370c0 212 132 374 343 374c176 0 279 -105 295 -241h-144c-13 72 -67 119 -151 119c-132 0 -195 -111 -195 -252c0 -147 75 -251 196 -251c85 0 145 50 154 126h142c-4 -64 -31 -124 -79 -169c-49 -47 -117 -76 -217 -76zM188 753l94 114
h146l96 -114h-118l-48 57h-2l-49 -57h-119z" />
    <glyph glyph-name="ccircumflex" unicode="&#x109;" horiz-adv-x="528" 
d="M282 -15c-162 0 -263 119 -263 271s100 271 256 271c133 0 214 -77 233 -188h-133c-9 45 -43 79 -94 79c-83 0 -124 -62 -124 -162c0 -97 38 -162 122 -162c56 0 94 28 103 87h131c-8 -108 -95 -196 -231 -196zM105 581l94 126h146l96 -126h-118l-48 69h-2l-49 -69h-119z
" />
    <glyph glyph-name="Cdotaccent" unicode="&#x10a;" horiz-adv-x="684" 
d="M368 -15c-201 0 -344 155 -344 370c0 212 132 374 343 374c176 0 279 -105 295 -241h-144c-13 72 -67 119 -151 119c-132 0 -195 -111 -195 -252c0 -147 75 -251 196 -251c85 0 145 50 154 126h142c-4 -64 -31 -124 -79 -169c-49 -47 -117 -76 -217 -76zM288 753v118h136
v-118h-136z" />
    <glyph glyph-name="cdotaccent" unicode="&#x10b;" horiz-adv-x="528" 
d="M282 -15c-162 0 -263 119 -263 271s100 271 256 271c133 0 214 -77 233 -188h-133c-9 45 -43 79 -94 79c-83 0 -124 -62 -124 -162c0 -97 38 -162 122 -162c56 0 94 28 103 87h131c-8 -108 -95 -196 -231 -196zM205 593v122h136v-122h-136z" />
    <glyph glyph-name="Ccaron" unicode="&#x10c;" horiz-adv-x="684" 
d="M368 -15c-201 0 -344 155 -344 370c0 212 132 374 343 374c176 0 279 -105 295 -241h-144c-13 72 -67 119 -151 119c-132 0 -195 -111 -195 -252c0 -147 75 -251 196 -251c85 0 145 50 154 126h142c-4 -64 -31 -124 -79 -169c-49 -47 -117 -76 -217 -76zM524 867
l-94 -114h-146l-96 114h118l48 -57h2l49 57h119z" />
    <glyph glyph-name="ccaron" unicode="&#x10d;" horiz-adv-x="528" 
d="M282 -15c-162 0 -263 119 -263 271s100 271 256 271c133 0 214 -77 233 -188h-133c-9 45 -43 79 -94 79c-83 0 -124 -62 -124 -162c0 -97 38 -162 122 -162c56 0 94 28 103 87h131c-8 -108 -95 -196 -231 -196zM201 576l-96 126h118l48 -69h2l49 69h119l-94 -126h-146z
" />
    <glyph glyph-name="Dcaron" unicode="&#x10e;" horiz-adv-x="672" 
d="M55 0v715h279c192 0 314 -154 314 -365c0 -117 -38 -217 -114 -281c-53 -44 -121 -69 -212 -69h-267zM200 125h112c136 0 189 82 189 225c0 142 -62 241 -185 241h-116v-466zM473 867l-94 -114h-146l-96 114h118l48 -57h2l49 57h119z" />
    <glyph glyph-name="dcaron" unicode="&#x10f;" horiz-adv-x="566" 
d="M236 -15c-128 0 -217 105 -217 271c0 160 91 271 219 271c72 0 117 -33 145 -76h3v264h136v-715h-131v67h-2c-31 -49 -81 -82 -153 -82zM266 99c81 0 123 59 123 154c0 98 -32 164 -119 164c-75 0 -113 -66 -113 -161c0 -100 38 -157 109 -157zM565 522v44
c35 4 62 13 62 48h-60v101h124v-85c0 -77 -61 -105 -126 -108z" />
    <glyph glyph-name="Dcroat" unicode="&#x110;" horiz-adv-x="682" 
d="M1 304v117h64v294h279c192 0 314 -154 314 -365c0 -117 -38 -217 -114 -281c-53 -44 -121 -69 -212 -69h-267v304h-64zM210 125h112c136 0 189 82 189 225c0 142 -62 241 -185 241h-116v-170h165v-117h-165v-179z" />
    <glyph glyph-name="dcroat" unicode="&#x111;" horiz-adv-x="566" 
d="M236 -15c-128 0 -217 105 -217 271c0 160 91 271 219 271c72 0 117 -33 145 -76h3v118h-132v80h132v66h136v-66h53v-80h-53v-569h-131v67h-2c-31 -49 -81 -82 -153 -82zM266 99c81 0 123 59 123 154c0 98 -32 164 -119 164c-75 0 -113 -66 -113 -161
c0 -100 38 -157 109 -157z" />
    <glyph glyph-name="Emacron" unicode="&#x112;" horiz-adv-x="619" 
d="M55 0v715h526v-122h-381v-160h334v-119h-334v-193h384v-121h-529zM183 762v97h284v-97h-284z" />
    <glyph glyph-name="emacron" unicode="&#x113;" horiz-adv-x="544" 
d="M285 -15c-171 0 -266 119 -266 272c0 152 104 270 253 270c164 0 253 -126 253 -309h-372c11 -80 54 -128 131 -128c53 0 84 24 99 63h134c-19 -91 -100 -168 -232 -168zM274 422c-72 0 -107 -42 -119 -110h228c-4 65 -46 110 -109 110zM130 592v97h284v-97h-284z" />
    <glyph glyph-name="Ebreve" unicode="&#x114;" horiz-adv-x="619" 
d="M55 0v715h526v-122h-381v-160h334v-119h-334v-193h384v-121h-529zM326 749c-84 0 -143 57 -148 133h78c4 -29 28 -48 69 -48c40 0 65 21 69 48h78c-5 -74 -59 -133 -146 -133z" />
    <glyph glyph-name="ebreve" unicode="&#x115;" horiz-adv-x="544" 
d="M285 -15c-171 0 -266 119 -266 272c0 152 104 270 253 270c164 0 253 -126 253 -309h-372c11 -80 54 -128 131 -128c53 0 84 24 99 63h134c-19 -91 -100 -168 -232 -168zM274 422c-72 0 -107 -42 -119 -110h228c-4 65 -46 110 -109 110zM273 573c-84 0 -143 57 -148 133
h78c4 -29 28 -48 69 -48c40 0 65 21 69 48h78c-5 -74 -59 -133 -146 -133z" />
    <glyph glyph-name="Edotaccent" unicode="&#x116;" horiz-adv-x="619" 
d="M55 0v715h526v-122h-381v-160h334v-119h-334v-193h384v-121h-529zM257 753v118h136v-118h-136z" />
    <glyph glyph-name="edotaccent" unicode="&#x117;" horiz-adv-x="544" 
d="M285 -15c-171 0 -266 119 -266 272c0 152 104 270 253 270c164 0 253 -126 253 -309h-372c11 -80 54 -128 131 -128c53 0 84 24 99 63h134c-19 -91 -100 -168 -232 -168zM274 422c-72 0 -107 -42 -119 -110h228c-4 65 -46 110 -109 110zM204 593v122h136v-122h-136z" />
    <glyph glyph-name="Eogonek" unicode="&#x118;" horiz-adv-x="619" 
d="M55 0v715h526v-122h-381v-160h334v-119h-334v-193h384v-121h-45c-29 -25 -47 -44 -47 -67c0 -19 10 -28 31 -28c13 0 23 3 32 7h2v-77c-12 -5 -29 -9 -56 -9c-75 0 -112 28 -112 85c0 40 26 70 55 89h-389z" />
    <glyph glyph-name="eogonek" unicode="&#x119;" horiz-adv-x="544" 
d="M361 -174c-76 0 -111 29 -111 81c0 35 23 60 51 79c-7 -1 -9 -1 -16 -1c-171 0 -266 119 -266 272c0 152 104 270 253 270c164 0 253 -126 253 -309h-372c11 -80 54 -128 131 -128c53 0 84 24 99 63h134c-14 -68 -54 -104 -106 -150c-39 -33 -58 -47 -58 -70
c0 -19 10 -28 31 -28c13 0 23 3 32 7h2v-77c-12 -5 -29 -9 -57 -9zM274 422c-72 0 -107 -42 -119 -110h228c-4 65 -46 110 -109 110z" />
    <glyph glyph-name="Ecaron" unicode="&#x11a;" horiz-adv-x="619" 
d="M55 0v715h526v-122h-381v-160h334v-119h-334v-193h384v-121h-529zM493 867l-94 -114h-146l-96 114h118l48 -57h2l49 57h119z" />
    <glyph glyph-name="ecaron" unicode="&#x11b;" horiz-adv-x="544" 
d="M285 -15c-171 0 -266 119 -266 272c0 152 104 270 253 270c164 0 253 -126 253 -309h-372c11 -80 54 -128 131 -128c53 0 84 24 99 63h134c-19 -91 -100 -168 -232 -168zM274 422c-72 0 -107 -42 -119 -110h228c-4 65 -46 110 -109 110zM200 576l-96 126h118l48 -69h2
l49 69h119l-94 -126h-146z" />
    <glyph glyph-name="Gcircumflex" unicode="&#x11c;" horiz-adv-x="734" 
d="M579 0l-5 96h-2c-49 -83 -116 -111 -201 -111c-108 0 -191 39 -251 104c-60 67 -93 158 -93 266c0 120 41 223 117 292c59 53 134 82 230 82c181 0 282 -99 306 -239h-142c-16 69 -69 119 -161 119c-135 0 -202 -112 -202 -254c0 -147 77 -253 200 -253
c112 0 184 82 184 162v4h-172v112h301v-380h-109zM195 753l94 114h146l96 -114h-118l-48 57h-2l-49 -57h-119z" />
    <glyph glyph-name="gcircumflex" unicode="&#x11d;" horiz-adv-x="560" 
d="M270 -175c-141 0 -225 60 -240 160h135c11 -32 39 -57 103 -57c76 0 114 36 114 107v56h-3c-31 -35 -69 -60 -134 -60c-114 0 -226 90 -226 245c0 153 92 251 222 251c64 0 111 -25 142 -68h2v54h131v-474c0 -72 -22 -121 -61 -156c-43 -40 -109 -58 -185 -58zM268 140
c85 0 121 63 121 139s-39 139 -122 139c-69 0 -115 -53 -115 -140c0 -88 45 -138 116 -138zM109 581l94 126h146l96 -126h-118l-48 69h-2l-49 -69h-119z" />
    <glyph glyph-name="Gbreve" unicode="&#x11e;" horiz-adv-x="734" 
d="M579 0l-5 96h-2c-49 -83 -116 -111 -201 -111c-108 0 -191 39 -251 104c-60 67 -93 158 -93 266c0 120 41 223 117 292c59 53 134 82 230 82c181 0 282 -99 306 -239h-142c-16 69 -69 119 -161 119c-135 0 -202 -112 -202 -254c0 -147 77 -253 200 -253
c112 0 184 82 184 162v4h-172v112h301v-380h-109zM364 749c-84 0 -143 57 -148 133h78c4 -29 28 -48 69 -48c40 0 65 21 69 48h78c-5 -74 -59 -133 -146 -133z" />
    <glyph glyph-name="gbreve" unicode="&#x11f;" horiz-adv-x="560" 
d="M270 -175c-141 0 -225 60 -240 160h135c11 -32 39 -57 103 -57c76 0 114 36 114 107v56h-3c-31 -35 -69 -60 -134 -60c-114 0 -226 90 -226 245c0 153 92 251 222 251c64 0 111 -25 142 -68h2v54h131v-474c0 -72 -22 -121 -61 -156c-43 -40 -109 -58 -185 -58zM268 140
c85 0 121 63 121 139s-39 139 -122 139c-69 0 -115 -53 -115 -140c0 -88 45 -138 116 -138zM278 573c-84 0 -143 57 -148 133h78c4 -29 28 -48 69 -48c40 0 65 21 69 48h78c-5 -74 -59 -133 -146 -133z" />
    <glyph glyph-name="Gdotaccent" unicode="&#x120;" horiz-adv-x="734" 
d="M579 0l-5 96h-2c-49 -83 -116 -111 -201 -111c-108 0 -191 39 -251 104c-60 67 -93 158 -93 266c0 120 41 223 117 292c59 53 134 82 230 82c181 0 282 -99 306 -239h-142c-16 69 -69 119 -161 119c-135 0 -202 -112 -202 -254c0 -147 77 -253 200 -253
c112 0 184 82 184 162v4h-172v112h301v-380h-109zM295 753v118h136v-118h-136z" />
    <glyph glyph-name="gdotaccent" unicode="&#x121;" horiz-adv-x="560" 
d="M270 -175c-141 0 -225 60 -240 160h135c11 -32 39 -57 103 -57c76 0 114 36 114 107v56h-3c-31 -35 -69 -60 -134 -60c-114 0 -226 90 -226 245c0 153 92 251 222 251c64 0 111 -25 142 -68h2v54h131v-474c0 -72 -22 -121 -61 -156c-43 -40 -109 -58 -185 -58zM268 140
c85 0 121 63 121 139s-39 139 -122 139c-69 0 -115 -53 -115 -140c0 -88 45 -138 116 -138zM209 593v122h136v-122h-136z" />
    <glyph glyph-name="uni0122" unicode="&#x122;" horiz-adv-x="734" 
d="M579 0l-5 96h-2c-49 -83 -116 -111 -201 -111c-108 0 -191 39 -251 104c-60 67 -93 158 -93 266c0 120 41 223 117 292c59 53 134 82 230 82c181 0 282 -99 306 -239h-142c-16 69 -69 119 -161 119c-135 0 -202 -112 -202 -254c0 -147 77 -253 200 -253
c112 0 184 82 184 162v4h-172v112h301v-380h-109zM300 -263v44c29 7 62 24 62 64h-60v107h124v-97c0 -78 -61 -110 -126 -118z" />
    <glyph glyph-name="uni0123" unicode="&#x123;" horiz-adv-x="560" 
d="M270 -175c-141 0 -225 60 -240 160h135c11 -32 39 -57 103 -57c76 0 114 36 114 107v56h-3c-31 -35 -69 -60 -134 -60c-114 0 -226 90 -226 245c0 153 92 251 222 251c64 0 111 -25 142 -68h2v54h131v-474c0 -72 -22 -121 -61 -156c-43 -40 -109 -58 -185 -58zM268 140
c85 0 121 63 121 139s-39 139 -122 139c-69 0 -115 -53 -115 -140c0 -88 45 -138 116 -138zM340 816v-44c-29 -7 -62 -24 -62 -64h60v-107h-124v97c0 77 61 110 126 118z" />
    <glyph glyph-name="Hcircumflex" unicode="&#x124;" horiz-adv-x="681" 
d="M55 0v715h145v-280h281v280h145v-715h-145v315h-281v-315h-145zM172 753l94 114h146l96 -114h-118l-48 57h-2l-49 -57h-119z" />
    <glyph glyph-name="hcircumflex" unicode="&#x125;" horiz-adv-x="549" 
d="M180 715v-269h3c37 55 78 81 149 81c106 0 177 -81 177 -192v-335h-136v315c0 56 -32 94 -89 94c-60 0 -104 -47 -104 -118v-291h-136v715h136zM108 753l94 114h146l96 -114h-118l-48 57h-2l-49 -57h-119z" />
    <glyph glyph-name="Hbar" unicode="&#x126;" horiz-adv-x="681" 
d="M-3 508v87h58v120h145v-120h281v120h145v-120h58v-87h-58v-508h-145v315h-281v-315h-145v508h-58zM481 435v73h-281v-73h281z" />
    <glyph glyph-name="hbar" unicode="&#x127;" horiz-adv-x="549" 
d="M180 715v-66h132v-80h-132v-123h3c37 55 78 81 149 81c106 0 177 -81 177 -192v-335h-136v315c0 56 -32 94 -89 94c-60 0 -104 -47 -104 -118v-291h-136v569h-53v80h53v66h136z" />
    <glyph glyph-name="Itilde" unicode="&#x128;" horiz-adv-x="257" 
d="M56 0v715h145v-715h-145zM186 755c-48 0 -82 33 -109 33c-15 0 -24 -10 -27 -31h-72c0 79 39 118 90 118c48 0 82 -35 109 -35c19 0 25 12 29 31h72c0 -68 -33 -116 -92 -116z" />
    <glyph glyph-name="itilde" unicode="&#x129;" horiz-adv-x="224" 
d="M44 0v513h136v-513h-136zM166 575c-43 0 -78 31 -95 31c-15 0 -23 -10 -25 -29h-69c0 79 34 118 79 118c44 0 78 -33 97 -33c17 0 22 10 25 29h69c0 -68 -29 -116 -81 -116z" />
    <glyph glyph-name="Imacron" unicode="&#x12a;" horiz-adv-x="257" 
d="M56 0v715h145v-715h-145zM-14 762v97h284v-97h-284z" />
    <glyph glyph-name="imacron" unicode="&#x12b;" horiz-adv-x="224" 
d="M44 0v513h136v-513h-136zM-10 592v97h244v-97h-244z" />
    <glyph glyph-name="Iogonek" unicode="&#x12e;" horiz-adv-x="257" 
d="M56 0v715h145v-710c-39 -26 -58 -50 -58 -72c0 -19 10 -28 31 -28c13 0 23 3 32 7h2v-77c-12 -5 -29 -9 -56 -9c-75 0 -112 28 -112 85c0 40 26 70 55 89h-39z" />
    <glyph glyph-name="iogonek" unicode="&#x12f;" horiz-adv-x="224" 
d="M44 0v513h136v-508c-39 -27 -55 -49 -55 -72c0 -19 12 -28 29 -28c13 0 23 3 32 7h2v-77c-12 -5 -29 -9 -57 -9c-73 0 -109 29 -109 81c0 45 35 77 62 93h-40zM44 593v122h136v-122h-136z" />
    <glyph glyph-name="Idotaccent" unicode="&#x130;" horiz-adv-x="257" 
d="M56 0v715h145v-715h-145zM60 753v118h136v-118h-136z" />
    <glyph glyph-name="dotlessi" unicode="&#x131;" horiz-adv-x="224" 
d="M44 0v513h136v-513h-136z" />
    <glyph glyph-name="IJ" unicode="&#x132;" horiz-adv-x="773" 
d="M56 0v715h145v-715h-145zM508 -13c-149 0 -234 67 -234 208v71h130v-62c0 -72 32 -100 92 -100s86 34 86 98v513h145v-514c0 -122 -71 -214 -219 -214z" />
    <glyph glyph-name="ij" unicode="&#x133;" horiz-adv-x="448" 
d="M44 0v513h136v-513h-136zM44 593v122h136v-122h-136zM260 -169c-25 0 -56 2 -77 6v97c55 0 85 7 85 53v526h136v-533c0 -60 -11 -89 -34 -112c-27 -27 -66 -37 -110 -37zM268 593v122h136v-122h-136z" />
    <glyph glyph-name="Jcircumflex" unicode="&#x134;" horiz-adv-x="516" 
d="M251 -13c-149 0 -234 67 -234 208v71h130v-62c0 -72 32 -100 92 -100s86 34 86 98v513h145v-514c0 -122 -71 -214 -219 -214zM227 753l94 114h146l96 -114h-118l-48 57h-2l-49 -57h-119z" />
    <glyph glyph-name="jcircumflex" unicode="&#x135;" horiz-adv-x="224" 
d="M36 -169c-25 0 -56 2 -77 6v97c55 0 85 7 85 53v526h136v-533c0 -60 -11 -89 -34 -112c-27 -27 -66 -37 -110 -37zM-30 581l71 126h139l73 -126h-107l-32 66h-2l-34 -66h-108z" />
    <glyph glyph-name="uni0136" unicode="&#x136;" horiz-adv-x="674" 
d="M55 0v715h145v-285l275 285h180l-280 -286l298 -429h-170l-230 334l-73 -74v-260h-145zM269 -263v44c29 7 62 24 62 64h-60v107h124v-97c0 -78 -61 -110 -126 -118z" />
    <glyph glyph-name="uni0137" unicode="&#x137;" horiz-adv-x="546" 
d="M382 0l-144 234l-59 -61v-173h-135v715h135v-396l182 194h163l-189 -195l212 -318h-165zM232 -263v44c29 7 62 24 62 64h-60v107h124v-97c0 -78 -61 -110 -126 -118z" />
    <glyph glyph-name="Lacute" unicode="&#x139;" horiz-adv-x="559" 
d="M55 0v715h145v-594h336v-121h-481zM274 878l-95 -125h-106l42 125h159z" />
    <glyph glyph-name="lacute" unicode="&#x13a;" horiz-adv-x="228" 
d="M46 0v715h136v-715h-136zM261 878l-95 -125h-106l42 125h159z" />
    <glyph glyph-name="uni013B" unicode="&#x13b;" horiz-adv-x="559" 
d="M55 0v715h145v-594h336v-121h-481zM233 -263v44c29 7 62 24 62 64h-60v107h124v-97c0 -78 -61 -110 -126 -118z" />
    <glyph glyph-name="uni013C" unicode="&#x13c;" horiz-adv-x="228" 
d="M46 0v715h136v-715h-136zM51 -263v44c29 7 62 24 62 64h-60v107h124v-97c0 -78 -61 -110 -126 -118z" />
    <glyph glyph-name="Lcaron" unicode="&#x13d;" horiz-adv-x="559" 
d="M55 0v715h145v-594h336v-121h-481zM314 522v44c35 4 62 13 62 48h-60v101h124v-85c0 -77 -61 -105 -126 -108z" />
    <glyph glyph-name="lcaron" unicode="&#x13e;" horiz-adv-x="228" 
d="M46 0v715h136v-715h-136zM225 522v44c35 4 62 13 62 48h-60v101h124v-85c0 -77 -61 -105 -126 -108z" />
    <glyph glyph-name="Ldot" unicode="&#x13f;" horiz-adv-x="559" 
d="M55 0v715h145v-594h336v-121h-481zM360 263v145h146v-145h-146z" />
    <glyph glyph-name="ldot" unicode="&#x140;" horiz-adv-x="392" 
d="M46 0v715h136v-715h-136zM237 263v145h146v-145h-146z" />
    <glyph glyph-name="Lslash" unicode="&#x141;" horiz-adv-x="564" 
d="M-4 191v97l64 32v395h145v-321l200 103v-97l-200 -103v-176h336v-121h-481v223z" />
    <glyph glyph-name="lslash" unicode="&#x142;" horiz-adv-x="260" 
d="M3 213v97l58 44v361h136v-258l66 51v-97l-66 -51v-360h-136v257z" />
    <glyph glyph-name="Nacute" unicode="&#x143;" horiz-adv-x="686" 
d="M55 0v715h147l238 -399c11 -20 23 -45 34 -65c6 -12 11 -24 16 -35h2c-1 14 -1 28 -2 43c-1 25 -2 56 -2 81v375h143v-715h-140l-244 395c-12 19 -23 44 -34 64c-6 12 -12 24 -17 35h-2c1 -15 1 -29 2 -44c1 -25 2 -56 2 -81v-369h-143zM497 878l-95 -125h-106l42 125
h159z" />
    <glyph glyph-name="nacute" unicode="&#x144;" horiz-adv-x="549" 
d="M177 513v-70h3c35 56 81 84 152 84c106 0 177 -81 177 -192v-335h-136v315c0 56 -32 94 -89 94c-60 0 -104 -47 -104 -118v-291h-136v513h133zM436 718l-108 -141h-106l55 141h159z" />
    <glyph glyph-name="uni0145" unicode="&#x145;" horiz-adv-x="686" 
d="M55 0v715h147l238 -399c11 -20 23 -45 34 -65c6 -12 11 -24 16 -35h2c-1 14 -1 28 -2 43c-1 25 -2 56 -2 81v375h143v-715h-140l-244 395c-12 19 -23 44 -34 64c-6 12 -12 24 -17 35h-2c1 -15 1 -29 2 -44c1 -25 2 -56 2 -81v-369h-143zM278 -261v44c29 7 62 24 62 64
h-60v107h124v-97c0 -78 -61 -110 -126 -118z" />
    <glyph glyph-name="uni0146" unicode="&#x146;" horiz-adv-x="549" 
d="M177 513v-70h3c35 56 81 84 152 84c106 0 177 -81 177 -192v-335h-136v315c0 56 -32 94 -89 94c-60 0 -104 -47 -104 -118v-291h-136v513h133zM213 -263v44c29 7 62 24 62 64h-60v107h124v-97c0 -78 -61 -110 -126 -118z" />
    <glyph glyph-name="Ncaron" unicode="&#x147;" horiz-adv-x="686" 
d="M55 0v715h147l238 -399c11 -20 23 -45 34 -65c6 -12 11 -24 16 -35h2c-1 14 -1 28 -2 43c-1 25 -2 56 -2 81v375h143v-715h-140l-244 395c-12 19 -23 44 -34 64c-6 12 -12 24 -17 35h-2c1 -15 1 -29 2 -44c1 -25 2 -56 2 -81v-369h-143zM518 867l-94 -114h-146l-96 114
h118l48 -57h2l49 57h119z" />
    <glyph glyph-name="ncaron" unicode="&#x148;" horiz-adv-x="549" 
d="M177 513v-70h3c35 56 81 84 152 84c106 0 177 -81 177 -192v-335h-136v315c0 56 -32 94 -89 94c-60 0 -104 -47 -104 -118v-291h-136v513h133zM204 576l-96 126h118l48 -69h2l49 69h119l-94 -126h-146z" />
    <glyph glyph-name="napostrophe" unicode="&#x149;" horiz-adv-x="549" 
d="M177 513v-70h3c35 56 81 84 152 84c106 0 177 -81 177 -192v-335h-136v315c0 56 -32 94 -89 94c-60 0 -104 -47 -104 -118v-291h-136v513h133zM-43 522v44c35 4 62 13 62 48h-60v101h124v-85c0 -77 -61 -105 -126 -108z" />
    <glyph glyph-name="Omacron" unicode="&#x14c;" horiz-adv-x="737" 
d="M369 -16c-212 0 -345 158 -345 372s133 373 345 373c211 0 344 -159 344 -373s-133 -372 -344 -372zM370 103c131 0 195 111 195 253c0 143 -64 254 -195 254s-198 -111 -198 -254c0 -142 67 -253 198 -253zM226 762v97h284v-97h-284z" />
    <glyph glyph-name="omacron" unicode="&#x14d;" horiz-adv-x="574" 
d="M287 -15c-159 0 -268 119 -268 271s109 271 268 271s268 -119 268 -271s-109 -271 -268 -271zM287 89c84 0 130 67 130 167s-46 168 -130 168s-130 -68 -130 -168s46 -167 130 -167zM145 592v97h284v-97h-284z" />
    <glyph glyph-name="Obreve" unicode="&#x14e;" horiz-adv-x="737" 
d="M369 -16c-212 0 -345 158 -345 372s133 373 345 373c211 0 344 -159 344 -373s-133 -372 -344 -372zM370 103c131 0 195 111 195 253c0 143 -64 254 -195 254s-198 -111 -198 -254c0 -142 67 -253 198 -253zM369 749c-84 0 -143 57 -148 133h78c4 -29 28 -48 69 -48
c40 0 65 21 69 48h78c-5 -74 -59 -133 -146 -133z" />
    <glyph glyph-name="obreve" unicode="&#x14f;" horiz-adv-x="574" 
d="M287 -15c-159 0 -268 119 -268 271s109 271 268 271s268 -119 268 -271s-109 -271 -268 -271zM287 89c84 0 130 67 130 167s-46 168 -130 168s-130 -68 -130 -168s46 -167 130 -167zM288 573c-84 0 -143 57 -148 133h78c4 -29 28 -48 69 -48c40 0 65 21 69 48h78
c-5 -74 -59 -133 -146 -133z" />
    <glyph glyph-name="Ohungarumlaut" unicode="&#x150;" horiz-adv-x="737" 
d="M369 -16c-212 0 -345 158 -345 372s133 373 345 373c211 0 344 -159 344 -373s-133 -372 -344 -372zM370 103c131 0 195 111 195 253c0 143 -64 254 -195 254s-198 -111 -198 -254c0 -142 67 -253 198 -253zM415 753l33 125h129l-79 -125h-83zM241 753l33 125h129
l-79 -125h-83z" />
    <glyph glyph-name="ohungarumlaut" unicode="&#x151;" horiz-adv-x="574" 
d="M287 -15c-159 0 -268 119 -268 271s109 271 268 271s268 -119 268 -271s-109 -271 -268 -271zM287 89c84 0 130 67 130 167s-46 168 -130 168s-130 -68 -130 -168s46 -167 130 -167zM334 577l40 141h129l-86 -141h-83zM160 577l40 141h129l-86 -141h-83z" />
    <glyph glyph-name="Racute" unicode="&#x154;" horiz-adv-x="651" 
d="M55 0v715h328c139 0 230 -80 230 -199c0 -84 -39 -148 -131 -173v-3c65 -19 100 -57 109 -144c11 -101 5 -178 31 -189v-7h-139c-18 8 -21 89 -26 165c-7 79 -49 122 -140 122h-117v-287h-145zM200 598v-199h154c80 0 118 41 118 98c0 59 -37 101 -114 101h-158zM459 878
l-95 -125h-106l42 125h159z" />
    <glyph glyph-name="racute" unicode="&#x155;" horiz-adv-x="351" 
d="M175 513v-82h3c31 59 66 88 126 88c14 0 25 -1 32 -4v-119h-3c-89 9 -153 -38 -153 -146v-250h-136v513h131zM362 718l-108 -141h-106l55 141h159z" />
    <glyph glyph-name="uni0156" unicode="&#x156;" horiz-adv-x="651" 
d="M55 0v715h328c139 0 230 -80 230 -199c0 -84 -39 -148 -131 -173v-3c65 -19 100 -57 109 -144c11 -101 5 -178 31 -189v-7h-139c-18 8 -21 89 -26 165c-7 79 -49 122 -140 122h-117v-287h-145zM200 598v-199h154c80 0 118 41 118 98c0 59 -37 101 -114 101h-158z
M275 -263v44c29 7 62 24 62 64h-60v107h124v-97c0 -78 -61 -110 -126 -118z" />
    <glyph glyph-name="uni0157" unicode="&#x157;" horiz-adv-x="351" 
d="M175 513v-82h3c31 59 66 88 126 88c14 0 25 -1 32 -4v-119h-3c-89 9 -153 -38 -153 -146v-250h-136v513h131zM45 -263v44c29 7 62 24 62 64h-60v107h124v-97c0 -78 -61 -110 -126 -118z" />
    <glyph glyph-name="Rcaron" unicode="&#x158;" horiz-adv-x="651" 
d="M55 0v715h328c139 0 230 -80 230 -199c0 -84 -39 -148 -131 -173v-3c65 -19 100 -57 109 -144c11 -101 5 -178 31 -189v-7h-139c-18 8 -21 89 -26 165c-7 79 -49 122 -140 122h-117v-287h-145zM200 598v-199h154c80 0 118 41 118 98c0 59 -37 101 -114 101h-158zM480 867
l-94 -114h-146l-96 114h118l48 -57h2l49 57h119z" />
    <glyph glyph-name="rcaron" unicode="&#x159;" horiz-adv-x="351" 
d="M175 513v-82h3c31 59 66 88 126 88c14 0 25 -1 32 -4v-119h-3c-89 9 -153 -38 -153 -146v-250h-136v513h131zM130 576l-96 126h118l48 -69h2l49 69h119l-94 -126h-146z" />
    <glyph glyph-name="Sacute" unicode="&#x15a;" horiz-adv-x="642" 
d="M332 -16c-195 0 -304 85 -309 237h142c11 -87 58 -120 161 -120c74 0 139 25 139 92c0 69 -69 85 -177 109c-128 29 -245 63 -245 212c0 141 115 214 274 214c161 0 265 -78 276 -223h-139c-8 72 -63 108 -138 108c-79 0 -129 -33 -129 -84c0 -58 50 -74 156 -98
c147 -32 267 -67 267 -221c0 -145 -118 -226 -278 -226zM467 878l-95 -125h-106l42 125h159z" />
    <glyph glyph-name="sacute" unicode="&#x15b;" horiz-adv-x="485" 
d="M252 -15c-149 0 -232 72 -240 181h126c9 -60 51 -85 112 -85c60 0 94 23 94 59c0 48 -66 55 -135 68c-92 18 -182 42 -182 155c0 111 92 164 209 164c136 0 209 -66 220 -170h-123c-7 56 -40 75 -99 75c-53 0 -88 -20 -88 -57c0 -45 69 -47 141 -63
c86 -19 181 -41 181 -162c0 -103 -89 -165 -216 -165zM403 718l-108 -141h-106l55 141h159z" />
    <glyph glyph-name="Scircumflex" unicode="&#x15c;" horiz-adv-x="642" 
d="M332 -16c-195 0 -304 85 -309 237h142c11 -87 58 -120 161 -120c74 0 139 25 139 92c0 69 -69 85 -177 109c-128 29 -245 63 -245 212c0 141 115 214 274 214c161 0 265 -78 276 -223h-139c-8 72 -63 108 -138 108c-79 0 -129 -33 -129 -84c0 -58 50 -74 156 -98
c147 -32 267 -67 267 -221c0 -145 -118 -226 -278 -226zM152 753l94 114h146l96 -114h-118l-48 57h-2l-49 -57h-119z" />
    <glyph glyph-name="scircumflex" unicode="&#x15d;" horiz-adv-x="485" 
d="M252 -15c-149 0 -232 72 -240 181h126c9 -60 51 -85 112 -85c60 0 94 23 94 59c0 48 -66 55 -135 68c-92 18 -182 42 -182 155c0 111 92 164 209 164c136 0 209 -66 220 -170h-123c-7 56 -40 75 -99 75c-53 0 -88 -20 -88 -57c0 -45 69 -47 141 -63
c86 -19 181 -41 181 -162c0 -103 -89 -165 -216 -165zM75 581l94 126h146l96 -126h-118l-48 69h-2l-49 -69h-119z" />
    <glyph glyph-name="Scedilla" unicode="&#x15e;" horiz-adv-x="642" 
d="M295 -192c-45 0 -79 12 -106 29l18 32c20 -9 46 -15 70 -15c31 0 57 10 57 31c0 19 -18 29 -41 29c-15 0 -26 -3 -37 -7l-16 22l56 56c-173 11 -269 93 -273 236h142c11 -87 58 -120 161 -120c74 0 139 25 139 92c0 69 -69 85 -177 109c-128 29 -245 63 -245 212
c0 141 115 214 274 214c161 0 265 -78 276 -223h-139c-8 72 -63 108 -138 108c-79 0 -129 -33 -129 -84c0 -58 50 -74 156 -98c147 -32 267 -67 267 -221c0 -139 -107 -220 -259 -225l-41 -35v-2c53 8 106 -11 106 -64c0 -48 -53 -76 -121 -76z" />
    <glyph glyph-name="scedilla" unicode="&#x15f;" horiz-adv-x="485" 
d="M218 -192c-45 0 -79 12 -106 29l18 32c20 -9 46 -15 70 -15c31 0 57 10 57 31c0 19 -18 29 -41 29c-15 0 -26 -3 -37 -7l-16 22l57 57c-129 11 -201 79 -208 180h126c9 -60 51 -85 112 -85c60 0 94 23 94 59c0 48 -66 55 -135 68c-92 18 -182 42 -182 155
c0 111 92 164 209 164c136 0 209 -66 220 -170h-123c-7 56 -40 75 -99 75c-53 0 -88 -20 -88 -57c0 -45 69 -47 141 -63c86 -19 181 -41 181 -162c0 -96 -77 -156 -192 -164l-43 -36v-2c53 8 106 -11 106 -64c0 -48 -53 -76 -121 -76z" />
    <glyph glyph-name="uni0162" unicode="&#x162;" horiz-adv-x="611" 
d="M18 593v122h575v-122h-215v-593h-145v593h-215zM242 -263v44c29 7 62 24 62 64h-60v107h124v-97c0 -78 -61 -110 -126 -118z" />
    <glyph glyph-name="uni0163" unicode="&#x163;" horiz-adv-x="332" 
d="M14 423v90h71v160h133v-160h88v-90h-88v-272c0 -39 20 -51 51 -51h26c5 0 9 0 14 1v-100c-7 -1 -14 -1 -22 -1c-15 -1 -36 -1 -63 -1c-66 0 -139 26 -139 123v301h-71zM128 -263v44c29 7 62 24 62 64h-60v107h124v-97c0 -78 -61 -110 -126 -118z" />
    <glyph glyph-name="uni021A" unicode="&#x21a;" horiz-adv-x="611" 
d="M18 593v122h575v-122h-215v-593h-145v593h-215zM242 -263v44c29 7 62 24 62 64h-60v107h124v-97c0 -78 -61 -110 -126 -118z" />
    <glyph glyph-name="uni021B" unicode="&#x21b;" horiz-adv-x="332" 
d="M14 423v90h71v160h133v-160h88v-90h-88v-272c0 -39 20 -51 51 -51h26c5 0 9 0 14 1v-100c-7 -1 -14 -1 -22 -1c-15 -1 -36 -1 -63 -1c-66 0 -139 26 -139 123v301h-71zM128 -263v44c29 7 62 24 62 64h-60v107h124v-97c0 -78 -61 -110 -126 -118z" />
    <glyph glyph-name="Tcaron" unicode="&#x164;" horiz-adv-x="611" 
d="M18 593v122h575v-122h-215v-593h-145v593h-215zM473 867l-94 -114h-146l-96 114h118l48 -57h2l49 57h119z" />
    <glyph glyph-name="tcaron" unicode="&#x165;" horiz-adv-x="332" 
d="M14 423v90h71v160h133v-160h88v-90h-88v-272c0 -39 20 -51 51 -51h26c5 0 9 0 14 1v-100c-7 -1 -14 -1 -22 -1c-15 -1 -36 -1 -63 -1c-66 0 -139 26 -139 123v301h-71zM259 539v45c35 3 62 14 62 41h-60v90h124v-80c0 -64 -57 -93 -126 -96z" />
    <glyph glyph-name="Tbar" unicode="&#x166;" horiz-adv-x="611" 
d="M18 593v122h575v-122h-215v-191h142v-87h-142v-315h-145v315h-142v87h142v191h-215z" />
    <glyph glyph-name="tbar" unicode="&#x167;" horiz-adv-x="332" 
d="M14 423v90h71v160h133v-160h88v-90h-88v-73h88v-80h-88v-119c0 -39 20 -51 51 -51h26c5 0 9 0 14 1v-100c-7 -1 -14 -1 -22 -1c-15 -1 -36 -1 -63 -1c-66 0 -139 26 -139 123v148h-72v80h72v73h-71z" />
    <glyph glyph-name="Utilde" unicode="&#x168;" horiz-adv-x="657" 
d="M331 -12c-187 0 -282 86 -282 242v485h145v-485c0 -75 37 -126 134 -126c92 0 135 53 135 128v483h145v-485c0 -153 -93 -242 -277 -242zM385 755c-48 0 -82 33 -109 33c-15 0 -24 -10 -27 -31h-72c0 79 39 118 90 118c48 0 82 -35 109 -35c19 0 25 12 29 31h72
c0 -68 -33 -116 -92 -116z" />
    <glyph glyph-name="utilde" unicode="&#x169;" horiz-adv-x="543" 
d="M499 0h-131v60h-3c-35 -47 -75 -74 -147 -74c-115 0 -178 72 -178 185v342h135v-319c0 -60 26 -93 85 -93c64 0 103 48 103 116v296h136v-513zM329 575c-48 0 -82 33 -109 33c-15 0 -24 -10 -27 -31h-72c0 79 39 118 90 118c48 0 82 -35 109 -35c19 0 25 12 29 31h72
c0 -68 -33 -116 -92 -116z" />
    <glyph glyph-name="Umacron" unicode="&#x16a;" horiz-adv-x="657" 
d="M331 -12c-187 0 -282 86 -282 242v485h145v-485c0 -75 37 -126 134 -126c92 0 135 53 135 128v483h145v-485c0 -153 -93 -242 -277 -242zM185 762v97h284v-97h-284z" />
    <glyph glyph-name="umacron" unicode="&#x16b;" horiz-adv-x="543" 
d="M499 0h-131v60h-3c-35 -47 -75 -74 -147 -74c-115 0 -178 72 -178 185v342h135v-319c0 -60 26 -93 85 -93c64 0 103 48 103 116v296h136v-513zM129 592v97h284v-97h-284z" />
    <glyph glyph-name="Ubreve" unicode="&#x16c;" horiz-adv-x="657" 
d="M331 -12c-187 0 -282 86 -282 242v485h145v-485c0 -75 37 -126 134 -126c92 0 135 53 135 128v483h145v-485c0 -153 -93 -242 -277 -242zM328 749c-84 0 -143 57 -148 133h78c4 -29 28 -48 69 -48c40 0 65 21 69 48h78c-5 -74 -59 -133 -146 -133z" />
    <glyph glyph-name="ubreve" unicode="&#x16d;" horiz-adv-x="543" 
d="M499 0h-131v60h-3c-35 -47 -75 -74 -147 -74c-115 0 -178 72 -178 185v342h135v-319c0 -60 26 -93 85 -93c64 0 103 48 103 116v296h136v-513zM272 573c-84 0 -143 57 -148 133h78c4 -29 28 -48 69 -48c40 0 65 21 69 48h78c-5 -74 -59 -133 -146 -133z" />
    <glyph glyph-name="Uring" unicode="&#x16e;" horiz-adv-x="657" 
d="M331 -12c-187 0 -282 86 -282 242v485h145v-485c0 -75 37 -126 134 -126c92 0 135 53 135 128v483h145v-485c0 -153 -93 -242 -277 -242zM327 730c-53 0 -97 41 -97 94c0 52 44 94 97 94s97 -42 97 -94c0 -53 -44 -94 -97 -94zM327 777c27 0 45 20 45 47s-18 47 -45 47
s-45 -20 -45 -47s18 -47 45 -47z" />
    <glyph glyph-name="uring" unicode="&#x16f;" horiz-adv-x="543" 
d="M499 0h-131v60h-3c-35 -47 -75 -74 -147 -74c-115 0 -178 72 -178 185v342h135v-319c0 -60 26 -93 85 -93c64 0 103 48 103 116v296h136v-513zM271 561c-53 0 -97 41 -97 94c0 52 44 94 97 94s97 -42 97 -94c0 -53 -44 -94 -97 -94zM271 608c27 0 45 20 45 47
s-18 47 -45 47s-45 -20 -45 -47s18 -47 45 -47z" />
    <glyph glyph-name="Uhungarumlaut" unicode="&#x170;" horiz-adv-x="657" 
d="M331 -12c-187 0 -282 86 -282 242v485h145v-485c0 -75 37 -126 134 -126c92 0 135 53 135 128v483h145v-485c0 -153 -93 -242 -277 -242zM374 753l33 125h129l-79 -125h-83zM200 753l33 125h129l-79 -125h-83z" />
    <glyph glyph-name="uhungarumlaut" unicode="&#x171;" horiz-adv-x="543" 
d="M499 0h-131v60h-3c-35 -47 -75 -74 -147 -74c-115 0 -178 72 -178 185v342h135v-319c0 -60 26 -93 85 -93c64 0 103 48 103 116v296h136v-513zM318 577l40 141h129l-86 -141h-83zM144 577l40 141h129l-86 -141h-83z" />
    <glyph glyph-name="Uogonek" unicode="&#x172;" horiz-adv-x="657" 
d="M389 -174c-80 0 -116 29 -116 81c0 39 20 62 41 81c-175 5 -265 89 -265 242v485h145v-485c0 -75 37 -126 134 -126c92 0 135 53 135 128v483h145v-485c0 -114 -50 -189 -151 -224c-45 -16 -81 -38 -81 -73c0 -19 10 -28 31 -28c13 0 23 3 32 7h2v-77
c-12 -5 -29 -9 -52 -9z" />
    <glyph glyph-name="uogonek" unicode="&#x173;" horiz-adv-x="543" 
d="M447 -174c-73 0 -109 29 -109 81c0 45 35 77 64 93h-34v60h-3c-35 -47 -75 -74 -147 -74c-115 0 -178 72 -178 185v342h135v-319c0 -60 26 -93 85 -93c64 0 103 48 103 116v296h136v-507c-39 -27 -58 -51 -58 -73c0 -19 10 -28 31 -28c13 0 23 3 32 7h2v-77
c-12 -5 -28 -9 -59 -9z" />
    <glyph glyph-name="Wcircumflex" unicode="&#x174;" horiz-adv-x="916" 
d="M213 0l-208 715h148l93 -355c7 -31 14 -70 21 -101c3 -18 7 -36 10 -55h2c4 17 8 35 11 52c7 31 14 68 22 100l78 359h140l78 -358c7 -32 15 -69 22 -100c3 -17 7 -35 11 -53h2c4 18 8 36 12 55c7 31 16 71 23 102l90 354h143l-204 -715h-135l-87 383
c-7 27 -12 58 -17 83c-3 15 -5 29 -8 44h-2c-2 -15 -4 -29 -7 -44c-4 -25 -9 -56 -16 -83l-88 -383h-134zM290 753l94 114h146l96 -114h-118l-48 57h-2l-49 -57h-119z" />
    <glyph glyph-name="wcircumflex" unicode="&#x175;" horiz-adv-x="745" 
d="M154 0l-150 513h135l62 -238c5 -21 12 -45 16 -64c3 -11 5 -22 7 -32h2c2 11 4 22 7 33c4 19 8 43 15 64l64 237h116l67 -237c5 -23 11 -46 16 -65c3 -11 5 -22 8 -32h2c2 10 4 21 7 32c4 20 9 41 16 64l65 238h132l-153 -513h-124l-68 252c-7 20 -12 43 -16 60
c-3 10 -5 20 -7 29h-2c-3 -9 -5 -19 -8 -29c-5 -17 -11 -40 -16 -60l-70 -252h-123zM204 581l94 126h146l96 -126h-118l-48 69h-2l-49 -69h-119z" />
    <glyph glyph-name="Ycircumflex" unicode="&#x176;" horiz-adv-x="629" 
d="M242 0v276l-238 439h158l108 -212c11 -23 23 -47 32 -67c5 -12 10 -24 15 -35h2c5 11 11 23 16 35c9 20 21 44 32 67l106 212h152l-238 -439v-276h-145zM146 753l94 114h146l96 -114h-118l-48 57h-2l-49 -57h-119z" />
    <glyph glyph-name="ycircumflex" unicode="&#x177;" horiz-adv-x="497" 
d="M55 -168v107h48c55 0 76 27 76 70c0 28 -10 62 -39 139l-138 365h143l76 -231c8 -24 15 -51 22 -74c3 -13 7 -25 11 -38h2c3 13 6 25 9 38c5 23 13 50 21 74l72 231h137l-179 -526c-40 -115 -77 -155 -181 -155h-80zM80 581l94 126h146l96 -126h-118l-48 69h-2l-49 -69
h-119z" />
    <glyph glyph-name="Zacute" unicode="&#x179;" horiz-adv-x="626" 
d="M27 0v109l390 482v3h-365v121h537v-121l-377 -468v-3h384v-123h-569zM462 878l-95 -125h-106l42 125h159z" />
    <glyph glyph-name="zacute" unicode="&#x17a;" horiz-adv-x="485" 
d="M27 0v104l264 299v3h-234v107h392v-109l-258 -292v-3h271v-109h-435zM423 718l-108 -141h-106l55 141h159z" />
    <glyph glyph-name="Zdotaccent" unicode="&#x17b;" horiz-adv-x="626" 
d="M27 0v109l390 482v3h-365v121h537v-121l-377 -468v-3h384v-123h-569zM247 753v118h136v-118h-136z" />
    <glyph glyph-name="zdotaccent" unicode="&#x17c;" horiz-adv-x="485" 
d="M27 0v104l264 299v3h-234v107h392v-109l-258 -292v-3h271v-109h-435zM195 593v122h136v-122h-136z" />
    <glyph glyph-name="Zcaron" unicode="&#x17d;" horiz-adv-x="626" 
d="M27 0v109l390 482v3h-365v121h537v-121l-377 -468v-3h384v-123h-569zM483 867l-94 -114h-146l-96 114h118l48 -57h2l49 57h119z" />
    <glyph glyph-name="zcaron" unicode="&#x17e;" horiz-adv-x="485" 
d="M27 0v104l264 299v3h-234v107h392v-109l-258 -292v-3h271v-109h-435zM191 576l-96 126h118l48 -69h2l49 69h119l-94 -126h-146z" />
    <glyph glyph-name="uni0218" unicode="&#x218;" horiz-adv-x="642" 
d="M332 -16c-195 0 -304 85 -309 237h142c11 -87 58 -120 161 -120c74 0 139 25 139 92c0 69 -69 85 -177 109c-128 29 -245 63 -245 212c0 141 115 214 274 214c161 0 265 -78 276 -223h-139c-8 72 -63 108 -138 108c-79 0 -129 -33 -129 -84c0 -58 50 -74 156 -98
c147 -32 267 -67 267 -221c0 -145 -118 -226 -278 -226zM257 -263v44c29 7 62 24 62 64h-60v107h124v-97c0 -78 -61 -110 -126 -118z" />
    <glyph glyph-name="uni0219" unicode="&#x219;" horiz-adv-x="485" 
d="M252 -15c-149 0 -232 72 -240 181h126c9 -60 51 -85 112 -85c60 0 94 23 94 59c0 48 -66 55 -135 68c-92 18 -182 42 -182 155c0 111 92 164 209 164c136 0 209 -66 220 -170h-123c-7 56 -40 75 -99 75c-53 0 -88 -20 -88 -57c0 -45 69 -47 141 -63
c86 -19 181 -41 181 -162c0 -103 -89 -165 -216 -165zM180 -263v44c29 7 62 24 62 64h-60v107h124v-97c0 -78 -61 -110 -126 -118z" />
    <glyph glyph-name="caron" unicode="&#x2c7;" 
d="M178 576l-96 126h118l48 -69h2l49 69h119l-94 -126h-146z" />
    <glyph glyph-name="uni02C9" unicode="&#x2c9;" 
d="M113 592v97h284v-97h-284z" />
    <glyph glyph-name="breve" unicode="&#x2d8;" 
d="M270 573c-84 0 -143 57 -148 133h78c4 -29 28 -48 69 -48c40 0 65 21 69 48h78c-5 -74 -59 -133 -146 -133z" />
    <glyph glyph-name="dotaccent" unicode="&#x2d9;" 
d="M182 593v122h136v-122h-136z" />
    <glyph glyph-name="ring" unicode="&#x2da;" 
d="M250 561c-53 0 -97 41 -97 94c0 52 44 94 97 94s97 -42 97 -94c0 -53 -44 -94 -97 -94zM250 608c27 0 45 20 45 47s-18 47 -45 47s-45 -20 -45 -47s18 -47 45 -47z" />
    <glyph glyph-name="ogonek" unicode="&#x2db;" 
d="M249 -174c-80 0 -116 29 -116 81c0 45 35 77 64 93h86c-29 -25 -47 -44 -47 -67c0 -19 10 -28 31 -28c13 0 23 3 32 7h2v-77c-12 -5 -29 -9 -52 -9z" />
    <glyph glyph-name="hungarumlaut" unicode="&#x2dd;" 
d="M288 577l40 141h129l-86 -141h-83zM114 577l40 141h129l-86 -141h-83z" />
    <glyph glyph-name="uni0394" unicode="&#x394;" horiz-adv-x="664" 
d="M21 0v98l235 617h150l237 -616v-99h-622zM294 461l-127 -348h326l-128 348c-7 19 -15 47 -22 74c-4 15 -8 31 -12 47h-2c-4 -16 -8 -32 -12 -47c-7 -27 -16 -55 -23 -74z" />
    <glyph glyph-name="uni03A9" unicode="&#x3a9;" horiz-adv-x="737" 
d="M370 610c-133 0 -198 -96 -198 -248c0 -144 51 -231 155 -255v-107h-296v111h113v2c-83 48 -120 156 -120 262c0 208 133 354 345 354c211 0 344 -146 344 -354c0 -106 -36 -214 -119 -262v-2h112v-111h-295v107c104 24 154 111 154 255c0 152 -64 248 -195 248z" />
    <glyph glyph-name="uni03BC" unicode="&#x3bc;" horiz-adv-x="547" 
d="M44 -168v681h135v-319c0 -60 26 -93 85 -93c64 0 103 48 103 116v296h136v-513h-131v60h-3c-33 -47 -73 -74 -129 -74c-29 0 -45 7 -58 16h-3v-170h-135z" />
    <glyph glyph-name="pi" unicode="&#x3c0;" horiz-adv-x="611" 
d="M225 423v-423h-133v423h-77v90h575v-90h-80v-277c0 -33 11 -46 40 -46c15 0 28 1 29 1v-100c-12 -1 -28 -2 -57 -2c-78 0 -145 26 -145 123v301h-152z" />
    <glyph glyph-name="fraction" unicode="&#x2044;" horiz-adv-x="244" 
d="M-171 0l496 715h90l-497 -715h-89z" />
    <glyph glyph-name="uni2113" unicode="&#x2113;" horiz-adv-x="383" 
d="M14 171v89c19 7 37 14 54 22v287c0 115 69 154 154 154c96 0 142 -47 142 -152c0 -157 -68 -257 -163 -320v-94c0 -44 16 -57 57 -57c13 0 30 0 42 1c7 1 14 1 21 2v-100c-11 -1 -23 -1 -35 -2c-20 -1 -45 -2 -64 -2c-96 0 -154 25 -154 134v54c-19 -7 -35 -11 -54 -16z
M201 569v-199c7 8 11 15 18 24c31 45 47 110 47 178c0 43 -9 58 -32 58c-22 0 -33 -20 -33 -61z" />
    <glyph glyph-name="Omega" unicode="&#x2126;" horiz-adv-x="737" 
d="M370 610c-133 0 -198 -96 -198 -248c0 -144 51 -231 155 -255v-107h-296v111h113v2c-83 48 -120 156 -120 262c0 208 133 354 345 354c211 0 344 -146 344 -354c0 -106 -36 -214 -119 -262v-2h112v-111h-295v107c104 24 154 111 154 255c0 152 -64 248 -195 248z" />
    <glyph glyph-name="estimated" unicode="&#x212e;" horiz-adv-x="621" 
d="M591 301h-421v-213c36 -32 86 -51 157 -51c117 0 177 56 209 149h51c-27 -114 -112 -197 -260 -197c-189 0 -298 132 -298 320c0 187 121 318 293 318c72 0 129 -22 173 -59c73 -63 97 -151 96 -267zM322 582c-65 0 -117 -21 -152 -52v-185h283v197
c-31 24 -75 40 -131 40z" />
    <glyph glyph-name="partialdiff" unicode="&#x2202;" horiz-adv-x="572" 
d="M391 417c-24 120 -122 170 -252 186v119c252 -13 400 -166 400 -418c0 -193 -86 -318 -270 -318c-160 0 -240 92 -240 229c0 148 99 248 235 248c60 0 102 -19 127 -46zM271 92c84 0 127 71 127 154c0 79 -45 114 -106 114c-73 0 -128 -48 -128 -147
c0 -87 46 -121 107 -121z" />
    <glyph glyph-name="Delta" unicode="&#x2206;" horiz-adv-x="664" 
d="M21 0v98l235 617h150l237 -616v-99h-622zM294 461l-127 -348h326l-128 348c-7 19 -15 47 -22 74c-4 15 -8 31 -12 47h-2c-4 -16 -8 -32 -12 -47c-7 -27 -16 -55 -23 -74z" />
    <glyph glyph-name="product" unicode="&#x220f;" horiz-adv-x="701" 
d="M58 715h585v-815h-145v693h-295v-693h-145v815z" />
    <glyph glyph-name="summation" unicode="&#x2211;" horiz-adv-x="608" 
d="M568 -100h-534v125l282 290v2l-282 273v125h524v-118h-362v-2l262 -246v-60l-269 -270v-2h379v-117z" />
    <glyph glyph-name="minus" unicode="&#x2212;" horiz-adv-x="569" 
d="M35 278v100h499v-100h-499z" />
    <glyph glyph-name="uni2215" unicode="&#x2215;" horiz-adv-x="244" 
d="M-171 0l496 715h90l-497 -715h-89z" />
    <glyph glyph-name="uni2219" unicode="&#x2219;" horiz-adv-x="218" 
d="M36 243v145h146v-145h-146z" />
    <glyph glyph-name="radical" unicode="&#x221a;" horiz-adv-x="622" 
d="M17 215v118h174l55 -139c11 -29 22 -57 29 -78c4 -12 8 -24 11 -35h2c3 11 5 23 8 35c5 21 12 50 23 79l167 520h130l-264 -815h-119l-131 315h-85z" />
    <glyph glyph-name="infinity" unicode="&#x221e;" horiz-adv-x="725" 
d="M184 124c-104 0 -157 84 -157 181c0 96 54 180 157 180c84 0 135 -49 181 -116c45 68 95 116 175 116c95 0 158 -73 158 -180c0 -108 -63 -181 -158 -181c-80 0 -130 48 -175 116c-46 -67 -97 -116 -181 -116zM196 385c-44 0 -62 -36 -62 -80c0 -45 18 -81 62 -81
c43 0 72 39 97 80c-25 43 -54 81 -97 81zM529 224c44 0 63 36 63 81c0 44 -19 80 -63 80c-40 0 -68 -38 -93 -81c25 -41 53 -80 93 -80z" />
    <glyph glyph-name="integral" unicode="&#x222b;" horiz-adv-x="337" 
d="M102 -17v612c0 53 12 82 33 105c31 31 66 41 133 41c40 0 66 -4 87 -11v-102h-3c-11 4 -28 8 -53 8c-40 0 -61 -11 -61 -54v-612c0 -53 -12 -82 -33 -105c-31 -31 -66 -41 -133 -41c-40 0 -66 4 -87 11v102h3c11 -4 28 -8 53 -8c40 0 61 11 61 54z" />
    <glyph glyph-name="approxequal" unicode="&#x2248;" horiz-adv-x="562" 
d="M148 339h-95c1 96 54 142 131 142c65 0 167 -33 212 -33c24 0 32 11 35 32h95c-1 -81 -40 -138 -125 -138c-74 0 -176 32 -218 32c-20 0 -32 -12 -35 -35zM148 145h-95c1 96 54 142 131 142c65 0 167 -33 212 -33c24 0 32 11 35 32h95c-1 -81 -40 -138 -125 -138
c-74 0 -176 32 -218 32c-20 0 -32 -12 -35 -35z" />
    <glyph glyph-name="notequal" unicode="&#x2260;" horiz-adv-x="562" 
d="M56 358v98h253l41 87h92l-41 -87h119v-98h-164l-44 -95h208v-98h-254l-40 -87h-92l40 87h-118v98h164l44 95h-208z" />
    <glyph glyph-name="lessequal" unicode="&#x2264;" 
d="M455 124l-410 147v123l410 147v-109l-217 -72c-17 -7 -40 -11 -60 -18c-12 -3 -24 -7 -35 -10v-2c11 -3 23 -6 35 -9c20 -5 43 -12 60 -17l217 -69v-111zM45 0v98h410v-98h-410z" />
    <glyph glyph-name="greaterequal" unicode="&#x2265;" 
d="M45 541l410 -147v-123l-410 -147v109l217 72c16 5 40 11 60 18c12 3 24 7 35 10v2c-11 3 -23 6 -35 9c-20 5 -44 10 -60 17l-217 69v111zM455 98v-98h-410v98h410z" />
    <glyph glyph-name="lozenge" unicode="&#x25ca;" horiz-adv-x="560" 
d="M340 715l202 -358l-201 -357h-121l-202 358l201 357h121zM278 593l-122 -233l124 -238h2l121 232l-123 239h-2z" />
    <glyph glyph-name="fi" unicode="&#xfb01;" horiz-adv-x="550" 
d="M11 419v94h70v46c0 125 96 168 228 155v-105c-64 3 -92 -5 -92 -58v-38h92v-94h-92v-419h-136v419h-70zM370 0v513h136v-513h-136zM370 593v122h136v-122h-136z" />
    <glyph glyph-name="fl" unicode="&#xfb02;" horiz-adv-x="555" 
d="M14 419v94h70v46c0 125 96 168 228 155v-105c-64 3 -92 -5 -92 -58v-38h92v-94h-92v-419h-136v419h-70zM373 0v715h136v-715h-136z" />
    </font>
</defs>
</svg>
